<svg xmlns="http://www.w3.org/2000/svg" viewBox="0 0 1153.61 109.56"><g id="Layer_2" data-name="Layer 2"><g id="STROKES"><path d="M45.71,74.23c.08.24,0,.5-.23.55-.1,0-.27-.13-.35-.25a.41.41,0,0,1,0-.61A.43.43,0,0,1,45.71,74.23Zm-24,5.08a.3.3,0,0,0,.22,0s-.05-.13-.09-.2C21.58,79,21.53,79.13,21.74,79.31Zm15.35-6.94c.19,0,.37.13.5.09.42-.15,1.2-.37.66-.82S37.26,71.79,37.09,72.37Zm10.63,7c-.34.14-.39.36-.28.58a.44.44,0,0,0,.57.23.38.38,0,0,0,.19-.55A.44.44,0,0,0,47.72,79.41ZM30,65.43a.65.65,0,0,0-.51,0c-.26.12-.44.36-.26.6.64.84.64,2,1.74,2.63.87-.31,1.19-.89.86-1.59A5,5,0,0,0,30,65.43Zm18.71,9.66c-.26.14-.56.3-.45.69a.51.51,0,0,0,.69.36.55.55,0,0,0,.41-.71C49.23,75.05,49,75,48.66,75.09Zm3.89-2.43c-.57-.34-1.16-.8-1.49.36-.17.61-.9.53-1.19,1.28.78.64,1.7,0,2.37.59.3.3.44-.1.56-.39C53.1,73.8,53.33,73.13,52.55,72.66Zm.63,14.39c0,.13-.11.28-.08.38s.18.46.43.36c.08,0,.15-.28.14-.41C53.63,87.09,53.41,87.05,53.18,87.05Zm-1-2c-.29,0-.33.28-.21.51a1,1,0,0,0,.82.63c.22,0,.31-.29.21-.59A.87.87,0,0,0,52.15,85.06ZM50,71.15c.21-.07.25-.38.16-.61s-.36-.45-.64-.22-.18.39,0,.68C49.67,71,49.88,71.21,50,71.15ZM18.69,37.33c.13,0,.27-.34.4-.52-.27-.72-.6-1.29-1.43-1.26-.17,0-.46.43-.42.48C17.64,36.54,17.92,37.25,18.69,37.33ZM53.53,78.74a.49.49,0,0,0-.2.62c.1.32.29.6.62.49a.47.47,0,0,0,.23-.6A.71.71,0,0,0,53.53,78.74ZM18.36,52.27c-.73-.49-.95.16-1.08.65s-.48.62-1.08.54c-1.28-.17-1.11.8-1.81,1.75a28.33,28.33,0,0,0,3.76-1.3C18.79,53.59,19.31,52.92,18.36,52.27Zm-2.54-20.5a1.29,1.29,0,0,0-.18.67c0,.4.22.61.64.56s1.09-.15,1.76-.25c-.54-.38-1-.7-1.42-1.07S16,31.44,15.82,31.77ZM22.35,52.7c.06,0,.12-.15.1-.17a2.85,2.85,0,0,0-.32-.27c-.06.11-.19.22-.16.32S22.19,52.8,22.35,52.7ZM23.7,37.91c.22-2.74.06-3-1.91-3.52a1.87,1.87,0,0,1-.67-.51C21.07,35.63,23,36.13,23.7,37.91ZM18.62,27.33c-.05-.49-.15-1-.69-1.07s-.62.52-.63,1c0,.71-.12,1.42-.11,2.15s.17,1.51,1.29,1.65C17.89,29.75,18.74,28.54,18.62,27.33Zm-4.27,18c-.46-.23-.4.12-.4.33a1.91,1.91,0,0,0,.17.47c.1-.11.24-.21.28-.35S14.43,45.34,14.35,45.31ZM12.46,31.13c-.11.07-.3.12-.33.23a.45.45,0,0,0,.3.61.34.34,0,0,0,.35-.2A.55.55,0,0,0,12.46,31.13ZM8.85,56.42c-.5-.19-.72-.06-.63.23a1.47,1.47,0,0,0,.55.71c.31.22.67.19.72-.08S9.21,56.62,8.85,56.42ZM0,48.3a4.66,4.66,0,0,0,.25.5l.39-.12a5.66,5.66,0,0,0-.43-.42S0,48.28,0,48.3ZM50.85.79A1.32,1.32,0,0,0,51.14,0h-.6c0,.13,0,.26,0,.39C50.54.81,50.66,1,50.85.79ZM84.05,0h-1.4c.18.11.36.25.52.2S83.87.55,84.05,0ZM72.3,93.68c-1.47,1.13-1.47,1.15-2.74-.72.49,2,1.12,3,2.21,3.73a3.13,3.13,0,0,1,2-2.72C73.23,93.25,72.75,93.33,72.3,93.68ZM56,70.62c-.55.45-1.26-.25-1.69.67a.49.49,0,0,0,.13.41c.67.45,1-.64,1.56-.6ZM67.89,88c-.72.33-1.28-.06-1.76-.78l0,0v.07l0,0c.59,1.87.61,1.88,2.88,1.75C68.77,88.27,68.49,87.72,67.89,88Zm-.44-4.11c.08-.57.06-1.17.14-1.71s-.32-1-.73-.88-.28.63-.19,1C66.81,82.86,66.83,83.59,67.45,83.89Zm2.47-3c.06,0,0-.42,0-.57-.15-.38-.31-.59-.54-.42a.5.5,0,0,0-.12.59C69.41,80.91,69.64,81.11,69.92,80.92Zm-.19,6.87a.46.46,0,0,0-.08-.58c-.08,0-.19,0-.28,0a.45.45,0,0,0,.08.58A.21.21,0,0,0,69.73,87.79Zm5.16,7.3a.82.82,0,0,0-.57.4,1.24,1.24,0,0,0,.24,1.07c1,1.62,2.19,1.56,3.49,1.13C77.31,95.48,76.32,94.67,74.89,95.09ZM75,83.43a1.79,1.79,0,0,0-.84-1.73C74.18,82.67,74.39,83.15,75,83.43ZM20.87,31.31c-.77,1.06-1.13,1.82.17,2.4C21,33,21.4,32.24,20.87,31.31ZM73.73,87c.5.42.57,1.29,1.32.8C74.67,87.42,74.52,86.75,73.73,87Zm-.93,2.24A1,1,0,0,0,73,88.18c-.15-.4-.4-.49-.68-.27a1,1,0,0,0-.15,1C72.28,89.35,72.52,89.54,72.8,89.24Zm-1-11.42a.56.56,0,0,0,.16-.76c-.24-.47-.38-1.17-.93-1.06a1.86,1.86,0,0,0-.17,1.54C71.05,78.28,71.49,78,71.82,77.82ZM65.5,89.42c.34.2.51-.11.55-.57s0-1.06.06-1.6a3.14,3.14,0,0,0-.77,1.16C65.23,88.83,65.2,89.22,65.5,89.42Zm-4.76-1.23a5.45,5.45,0,0,0,.17-.82c-.17-.22-.31-.23-.36,0a2.63,2.63,0,0,0,0,.69C60.53,88.23,60.69,88.33,60.74,88.19Zm-5.23-8.81c.82-.56,1.36.71,2.21.45C57.22,77.88,56.31,78.85,55.51,79.38Zm5.74-1.06c-.23.07-.26.33-.13.56s.35.47.61.41.17-.33.12-.56S61.5,78.24,61.25,78.32Zm-.53-3.26c.2-.37,0-.77-.09-1.14a2.12,2.12,0,0,0-1.94-1.75c-.19,0-.37,0-.41.18.06.77.88.8.73,1.75-1.38.36-2.13-1.93-3.89-1,1.11,1.33,1.93,2.43,3.42,1.86a1.25,1.25,0,0,1,1.39.17C60.18,75.3,60.49,75.47,60.72,75.06Zm.74,21.51a2.49,2.49,0,0,0-1-2.45C60.5,95.46,60.65,96.14,61.46,96.57ZM63.32,76.5c-.07-.22-.21-.34-.34-.28a.54.54,0,0,0-.15.64c.05.23.15.49.34.42S63.41,76.8,63.32,76.5ZM65.94,94a.58.58,0,0,0-.06.75c.42.6.67,1.12,0,1.69a.65.65,0,0,0,0,.83c.23.41.55.55.9.4s.56-.39.5-.54c-.43-1,0-2.31-.64-3.16C66.37,93.76,66.19,93.68,65.94,94Zm-2.73-7c-.12,0-.15.14-.1.33s.19.39.37.24a.29.29,0,0,0,0-.4A.47.47,0,0,0,63.21,87.06Zm.13-5.66c.77.13,1.27,1,2.24,1.67C64.65,79.89,64.23,79.62,63.34,81.4ZM65.79,77a.51.51,0,0,0,.41-.61c0-.58-.4-.71-.7-.87s-.47,0-.49.4c0,.54-.47,1-.22,1.58C65.24,77.9,65.44,77.06,65.79,77ZM37.7,28.41c0,.11.14.17.22.25.06-.12.18-.26.17-.34s-.13-.15-.21-.23C37.82,28.2,37.69,28.35,37.7,28.41ZM43.64,6.93a3.67,3.67,0,0,0-.13.36c.09.11.17.27.29.25s.17-.29.13-.42S43.81,6.81,43.64,6.93ZM38.9,26.65c.41-.8-.18-.85-.45-1.06a2.54,2.54,0,0,1-.67-1.07c-.08-.18-.2-.29-.4-.2a1.16,1.16,0,0,0-.53,1.34,1.69,1.69,0,0,0,1.13,1C38.29,26.71,38.65,27.16,38.9,26.65ZM44.8,5.78c0,.3.08.36.19.23a.76.76,0,0,0,.06-.35.12.12,0,0,0-.13-.12C44.85,5.57,44.8,5.72,44.8,5.78Zm1.88.28c.08.36.31.45.54.05.45-.82.1-1.19.08-2.08C47,4.89,46.5,5.27,46.68,6.06ZM21,33.81l.07-.06-.07,0ZM47.42,1.18c-.11,0-.16.3-.18.51s0,.27,0,.28.16-.15.21-.41S47.5,1.15,47.42,1.18Zm-5.81,3a.92.92,0,0,0-.28.5c-.06.3.05.35.21.27a.87.87,0,0,0,.31-.49C42,3.94,41.83,4,41.61,4.14Zm-1,7.15c-.14.82,0,1.17.25,1.4s.56.3.71.67C41.64,12.08,41.74,10.77,40.66,11.29Zm1-10.82c-.07.06-.27.3-.36.4-.22.29-.35.49-.13.3a4,4,0,0,0,.42-.48C41.7.47,41.84.28,41.62.47Zm.83,1.59c.1-.21.12-.33,0-.22s-.13.21-.19.31-.13.36,0,.25A2.44,2.44,0,0,0,42.45,2.06Zm-1,7.37a1.69,1.69,0,0,0,.19-.28,1.53,1.53,0,0,0-.37,0c-.08,0-.15.12-.18.28S41.27,9.58,41.43,9.43Zm1,7.49a.51.51,0,0,0,.2-.51c0-.23-.12-.28-.27-.19a.62.62,0,0,0-.12.57C42.24,16.88,42.33,17,42.4,16.92ZM71.61,4.36a.44.44,0,0,0,.28.1ZM1126.29,25.93a.38.38,0,0,0-.24.4.67.67,0,0,0,.84.36c.15,0,.19-.27.28-.42A.77.77,0,0,0,1126.29,25.93Zm4.66-1.47c-.36.11-.72.26-.55.59a.93.93,0,0,0,.64.13c.32-.13.78-.35.76-.53C1131.77,24.26,1131.29,24.41,1131,24.46Zm-3.39-3.75a2,2,0,0,0,0-.42l-.34,0,0,.43ZM70.44,2.6c-.56.28-1.51.09-1.68,1.85,1,.08,1.9-.37,2.85-.09C71.07,3.94,71.06,2.29,70.44,2.6ZM59.67,1.42c.46,1.15.94,1.5,1.57,1.35C60.74,2.43,60.45,1.43,59.67,1.42Zm-5.29.4A2.45,2.45,0,0,0,54.23,0H54.1A2.29,2.29,0,0,0,54.38,1.82Zm1.15,2a1.58,1.58,0,0,0-.22,1.31c.16.48.49.54.78.31a1.35,1.35,0,0,0,.26-1.23C56.19,3.51,55.84,3.67,55.53,3.82Zm2.91-1.17c-.26-.46-.54-1-.95-.6a1.46,1.46,0,0,0-.17,1.34c.29.59.72.3,1.08.1C58.59,3.39,58.55,2.84,58.44,2.65ZM57.92,6c0,.15.14.08.15-.12a.92.92,0,0,0,0-.41c0-.07-.13-.06-.22-.09A3.5,3.5,0,0,0,57.92,6Zm-3.75-.88v.43l.2.1a2.63,2.63,0,0,0,0-.41C54.33,5.11,54.23,5.12,54.17,5.08ZM45.7,6.15c.08,0,.15-.17.13-.32a.38.38,0,0,0-.11-.21.28.28,0,0,0-.13.31C45.61,6,45.65,6.15,45.7,6.15ZM35,19.78c-.09.06-.24.12-.27.2a.67.67,0,0,0,.09.72c.13.12.29,0,.36-.29S35.21,19.87,35,19.78ZM37,22.21A1.2,1.2,0,0,0,37.68,21a1.56,1.56,0,0,1,.71-1.3c1-.75,1.18-1.82.61-2.48a5.75,5.75,0,0,0-1.21-.92c-.38.82-.63,1.43-.94,2a4.84,4.84,0,0,0-.64,3.08C36.27,21.92,36.37,22.45,37,22.21Zm2.31.88a.48.48,0,0,0,.25-.53c0-.31-.21-.36-.42-.34a.43.43,0,0,0-.24.5C38.9,23,39,23.19,39.27,23.09Zm-4.08-4.7c.08.08.15.25.28.27s.43-.2.52-.55-.07-.36-.23-.33S35.34,18,35.19,18.39ZM36.62,6.28c.46-1.24,1.22-2.46.49-2.66a23.21,23.21,0,0,0-1.57,3.65c-.13.29.13.17.39-.09A3.05,3.05,0,0,0,36.62,6.28ZM21,33.81l.08.07c0-.05,0-.08,0-.13ZM35.5,33.1a.57.57,0,0,0,.72-.15.79.79,0,0,0,.07-.88,2.74,2.74,0,0,0-.54-.86,2.44,2.44,0,0,1-.54-2.82c.18-.61.2-1.27.34-1.9.35-1.61.45-2.63.18-3.26s-.91-.82-2-1c-.47-.06-.48-.52-.32-.9a7.43,7.43,0,0,0,.83-3.87,1.9,1.9,0,0,1,.46-1.06c.16-.23.67-.48.33-.8s-.5,0-.76.56c-.7,1.67-1.7,3.26-2.31,5-.23.69-1.17,1.24-.8,2.06.26.54.57,1.38,1,1.39,1.26,0,1.24,1.23,1.69,2.13s-.17,2,0,2.75C33.9,31.25,34.63,32.76,35.5,33.1ZM24.15,48.69c-.34.13-.35.36-.18.59a.65.65,0,0,0,.44.22.32.32,0,0,0,.32-.49A.53.53,0,0,0,24.15,48.69Zm15.63-30.8a.39.39,0,0,0,.31-.4c0-.28-.08-.42-.25-.34a.69.69,0,0,0-.22.33C39.56,17.74,39.62,17.91,39.78,17.89Zm.08-10c-.19-.18-.46-.2-.48-.7-.6,1.21-.32,1.38-.24,1.8s.12.57.49,0C39.91,8.5,40,8.06,39.86,7.91Zm-14.61,17a1.35,1.35,0,0,0,.65.66c.2.11.39-.14.38-.4a.58.58,0,0,0-.61-.62C25.46,24.54,25.16,24.66,25.25,24.88ZM75.54,80.23s0-.28,0-.41-.26-.32-.4-.13a.63.63,0,0,0,0,.43C75.22,80.36,75.4,80.38,75.54,80.23ZM29.08,41.8h.06s0-.06,0-.09l-.06,0S29.08,41.78,29.08,41.8Zm-1.31.27c.29.64.88.75,1.62.89-.12-.45-.21-.81-.31-1.16C28.66,41.87,28.19,41.7,27.77,42.07Zm2,10.29a1.75,1.75,0,0,0-1.24-.25c.2,1.39.2,1.41.42,1.51.53.23,1.12.27,1.43-.16S30.28,52.59,29.79,52.36Zm1.19-5a.41.41,0,0,0-.17-.57c-.13,0-.31,0-.38.08a.41.41,0,0,0,0,.59A.32.32,0,0,0,31,47.35Zm1.3-4.83c.35.38.69,1,1.27.58a2.05,2.05,0,0,0,.92-1.86,9.14,9.14,0,0,0-2.07-4c-.2-.24-.53-.13-.8.05s-.25.52-.14.83a4.33,4.33,0,0,1,0,2.57c-1.46-.36-2.33-1.12-2-2.74A1.6,1.6,0,0,0,29,36.14a15,15,0,0,0,.12,5.57C30.52,40.93,31.4,41.56,32.28,42.52Zm-4.47-8.3c.13.08.29-.09.23-.26a2.35,2.35,0,0,0-.29-.49c-.22,0-.36.12-.3.28A1,1,0,0,0,27.81,34.22ZM33,11.71c-.41-.36-1.15-.34-2.24,0-.1.64.58.22.9.25s.91,0,.78.63c-.18.9.14,1.6-.39,2.76a2.29,2.29,0,0,0-.13,1.89c.11.28.08.85.57.5a1.54,1.54,0,0,0,.58-1.39,7.83,7.83,0,0,1,.28-2.53C33.55,12.74,33.4,12.06,33,11.71ZM30,22.6a.54.54,0,0,0-.25.3c0,.24.08.38.28.35s.18-.2.26-.3S30.2,22.56,30,22.6Zm.19,12a.48.48,0,0,0-.35.24c-.18.73.35.92.76,1.19,0,0,.14,0,.35-.09C30.93,35.36,30.9,34.78,30.19,34.65ZM29.08,19.31c-.61-.13-.88-.18-1.13-.25s-.59-.23-.8.32.13.58.51.48S28.3,19.63,29.08,19.31ZM1090.61,103.2c-.33.15-.53.37-.43.65s.48.4.85.27.54-.35.43-.63S1091,103.11,1090.61,103.2Zm16.61-47.5h0Zm0,0h.1l-.1,0Zm-9.55-4.56a2.44,2.44,0,0,0-2.21.07c-.57.41,0,.86.25,1.28,1.06,1.75,3.27,2.72,5,4.29.15-.51.21-.68.26-.86.28-1.13-1.73-1.62-1.86-2.67a1.72,1.72,0,0,1,1.38.37A4.67,4.67,0,0,0,1097.64,51.14ZM1103,33.87s0,0,0,0h0Zm2.19.68c0-.16.12-.38,0-.49a1.45,1.45,0,0,0-1.42-.22,5.83,5.83,0,0,1-.74.06,4.29,4.29,0,0,0,.65.31C1104.2,34.34,1104.72,34.44,1105.22,34.55Zm14.52,25.55c1.25-.73,2.13-1.18.27-2.1,1.06-2.13-.84-1.45-2.35-1.4a11.49,11.49,0,0,0-4.46,1.23c2.53-.08,3.93.5,4,2.38,0,.43.68.87,1.12,1.31C1118.48,60.88,1119.27,60.37,1119.74,60.1Zm-2.23,4.61.1.07,0,0ZM1103,33.86v0h0Zm5.47,18.6a13.27,13.27,0,0,0-7.81,1.25,39.27,39.27,0,0,1,6.51,1.95C1107,54.44,1109.57,53.87,1108.49,52.46Zm9,12.25v.05l.11,0Zm-63.38,23-.05,0,0,0Zm46.47-34-.14-.09a1.19,1.19,0,0,0,.08.16.61.61,0,0,0,.14-.07h-.08Zm-1057.52-3h0s0,0,0,0h0Zm1068-41.1a1.79,1.79,0,0,0-.75,1.86C1111.78,10.62,1111.77,10.59,1111.05,9.58ZM76,75.84l0,0h0v0l-.06,0Zm0,1.85c.25.7.52,1.43,1.45,1.1a13.21,13.21,0,0,1-1.45-3C75.45,76.43,75.8,77.09,76,77.69Zm975.48,10.43c0,.13.16.39.34.47a1.2,1.2,0,0,0,1.74-.53,1.64,1.64,0,0,1,.48-.34,5.9,5.9,0,0,0-.7-.1C1052.62,87.59,1051.74,87.36,1051.49,88.12ZM41.22,50.74c-.17,1.14.4,1.56,1.29,1.73.35.07.77.21,1-.21a1.16,1.16,0,0,0-.4-1.58C42.48,51,41.89,50.27,41.22,50.74ZM55.62,9.38l0,0h0Zm1068-4.23a.14.14,0,0,0,0-.06h-.13l.07.09Zm1,2.28c.33-.83.77-1.43.46-2.08s-.9-.46-1.44-.2C1123.84,5.86,1123.6,6.68,1124.56,7.43ZM55.62,9.38l.05,0V9.33Zm.43-2.6c-.28-.12-.33.36-.4.74a7.29,7.29,0,0,0,0,1.81,2.16,2.16,0,0,0,.64-1.61C56.3,7.31,56.28,6.87,56.05,6.78ZM1118.33,61.52a.25.25,0,0,0,0,.07h0a.3.3,0,0,1,.08.08s0,0,0,0Zm.23-33.78c-.38.09-.78.11-1.14.22s-.62.41-.34.67a1.44,1.44,0,0,0,1,.35,8.84,8.84,0,0,0,3.8-1.92,7.54,7.54,0,0,1-2.8-3c-.89.75-2.54,1.4-.22,2.37C1120.2,27,1119.76,27.48,1118.56,27.74ZM82.25,90.29c.14,0,.22-.34.16-.56-.27-1.09-1-.58-1.47-.93C81.27,89.58,81.65,90.18,82.25,90.29ZM1152.67,35c-.35.15-.44.4-.29.64a.73.73,0,0,0,1,.06c.15-.11.28-.34.21-.47A.67.67,0,0,0,1152.67,35Zm-68.12,40.4a1.13,1.13,0,0,0-.58,1.91c.46.38,1.07.88,1.5.3s2-.56,1-1.48C1086,75.67,1085.36,75,1084.55,75.35Zm29-44.08c-.17.56.64,1.16,1.46,1.05,1.07-.14.34-.87.42-1.36C1114.7,30.92,1113.75,30.56,1113.54,31.27ZM55.83,55.26c.5-.22.93-.46,1.27.23.14.26.44.27.61,0a.71.71,0,0,0-.14-.83c-.43-.47-.87-.89-1.34-1.35A3.55,3.55,0,0,0,55.83,55.26Zm.4-2,0,0h0v0h-.06ZM1115.42,31h.13l-.12-.08a0,0,0,0,1,0,0Zm2.74,38.6.11,0-.12,0a4.33,4.33,0,0,1-1.49,2.41c-1.25,1.26-1.9,1.24-3.24-.3a3.33,3.33,0,0,0-2.63-1c-3.45-.26-4.7-1-5.74-3.51a4.08,4.08,0,0,0-3.87-2.84c-2.21-.22-2.76-.07-3.6,2,1.41.34,3.3,0,4.06,1.34l-.05,0c.8.5,2.47.63,1.75,1.8-.45.72-3.75,1.59-4.76,1.2a13.39,13.39,0,0,0-4.21-.63,3.89,3.89,0,0,0-2.74.54c-1.88,1.2-2.37,1-4-.57a3.73,3.73,0,0,0-1.41-1c-1-.35-1.85-.09-1.93.77,0,.35.49.77.39,1.08-.24.7,1.07,1.62-.11,2-1.52.52-1.35-.72-1.94-1.22a11.24,11.24,0,0,0-2.39-.93c-.64-.27-1.27-1-1.94-.24s.2,1,.9,1.33,1.06.59.93,1.32a4.35,4.35,0,0,1-2.61-.83c-.66-.31-1.09-.86-1.74-1.19a2.42,2.42,0,0,0-2.53.07c-.7.48-.45,1,.21,1.47s1.17,1,.36,1.44a1.67,1.67,0,0,1-2-.5c-1.35-1.31-3-.9-4.69-.7-.65.08-1.31.18-1.36.8s.43.85,1,1.12c1.12.52,2.25,1,3.32,1.59.52.27,1.14.66.68,1.18a1.87,1.87,0,0,1-1.75.39,4.72,4.72,0,0,1-1-.39c-.75-.37-1.45-1-2.43-.52-.61.3-.44.83-.23,1.3A2.11,2.11,0,0,0,1067.7,80c1.63,0,1.67.14.86,1.48-.23.39-.3.7.08,1s.59.41.81.64c.78.87,3.88,1.56,5.22,1.27,1.83-.4,2.42-1.11,1.92-2.53-.45-1.26-.26-2.63-.7-3.89-.3-.88.28-1,1.06-1.12.93-.09,1.69.37,1.46,1-.42,1.12.06,2.21,0,3.31-.12,1.63.35,2,2.52,1.71,1-.12,1.88-.42,2.93-.66a4.23,4.23,0,0,0-.65-.81c-.8-.6-2.15-1.15-1.07-2.07.84-.71,3.61-.27,4.45.56.54.54,1,1.12,1.59,1.66a1.09,1.09,0,0,0,1.37.18c.4-.35-.14-.68-.45-1a5.8,5.8,0,0,1-.52-.79c2.93.73,5.73.42,8.55.83,1.71.25,3,.86,3.23,1.8.32,1.37,1.4,2,2.94,2.74-1.38,0-2.5,1.17-3.84-.06a1.6,1.6,0,0,0-1.77-.06,15.59,15.59,0,0,1-6.75,1c-.84,0-1.67,0-1.8.7s.49,1.26,1.52,1.45a11.49,11.49,0,0,0,1.18.09c2,.14,2.74.9,2.59,2.33-.21,2-.45,2.25-2.93,2.36a5.52,5.52,0,0,0-1.5.17c-1.79.68-2.31-.13-2.68-1.19a9.28,9.28,0,0,0-.41-1.11c-1.66-3.7-1.66-3.7-6.91-3.41l.15,0,0,0-.07,0a42.05,42.05,0,0,0-8.16-.2c-1.55.17-3,.56-4.33-.55-.72-.6-1.66-.21-2.56-.15-1.12.09-2.21-.28-1.75-1.23s.31-1-.86-.73c-.24.06-.51.07-.76.12a8.86,8.86,0,0,1-3.18-.26,2.74,2.74,0,0,0-2.54,0c-1,.38-.21.92-.05,1.4-1.17.21-2.37.4-1.78,1.61a11.78,11.78,0,0,0-1.06-1.06c-1.15-.93-2.26-1-3,.16-1.18,1.8-2.15,1-3.13-.14-.88,0-2.27-.49-2.3.24-.09,1.8-.9,1.57-2.52.81a10.82,10.82,0,0,0-2.65-.57c-.57-.09-1.09.08-1.08.52,0,.22.39.6.66.63,1.67.21,3.25,1.18,4.87.89,2.65-.49,2.73.75,3.19,2,.34.91,0,1.63-.83,3a9.55,9.55,0,0,0-1.34-4c-1.77.42-3.51,1.35-5.36,0-.46-.34-1.53-.09-1.24.53.71,1.5-.76,1.57-2,1.77a13.61,13.61,0,0,1-5.43.1c-1.51-.39-2.51-1.05-3.88.34-.55.55-3.48-.07-4.45-.92-1.35-1.18-3.58-.16-4.66-1.41,0,0-.87.1-1,.27-1.36,2.32-4.74,1.39-7.07,2.1a2.21,2.21,0,0,1-3.12-1.78c0-.28-.17-.67.28-.7,1.92-.09,2.67-2,5.18-1.38s3.85-1.2,6.18-1.43c-3.28-2.31-3.61-2.3-4.73-.09-1.06.12-1.22-.54-1.66-1-.21-.21-.7-.54-.82-.5-2.79,1.06-6.89,1.12-7.91,3.56-.82,1.94-2.91,2.73-4.65,4.41a4.64,4.64,0,0,0-3.12-2.47c-1.34-.47-2.52-1-3-2.15a1.88,1.88,0,0,0-2-1.13c-1.4,0-2.42-.18-1.81-1.47.15-.3-.21-.52-.6-.62-.57-.13-1.12,0-1.23.41-.2.79-.54,1.2-1.75.64-.6-.28-1.35-.34-1.53.31s.44.86,1.1,1a9.45,9.45,0,0,1,4.82,3.21c.29.32.64.68.29,1a1.74,1.74,0,0,1-1.76.31c-1.53-.45-2.83-1.07-2.88-2.45,0-.28-.34-.54-.79-.49-.66.06-.76.41-.62.82a2.61,2.61,0,0,0,.32.52c.28.46.55.95-.44,1.06a.87.87,0,0,1-1.06-.67c-.28-1.37-1.75-2.53-1.26-4-3.56-.29-6.65.52-9.94.16l-.07.58c1.52.86,3.11,1.67,4.55,2.59,1.75,1.12,1.5,1.8-.73,2.34a4.56,4.56,0,0,1-3.72-.23,4.2,4.2,0,0,0-2.55-.61c-.54,0-1.29-.1-1.34-.47-.46-3.5-3.81-.49-5.5-1.35-.48-.25-.94.44-1.22.87-.43.65,0,1.56-1.08,2-.87-.1-.94-.62-1.11-1-.51-1.3-1.79-1.64-3.38-1.34s-3,.7-3.74-.94a1.44,1.44,0,0,0-2-.28c-1.21.89-2.1.38-3-.22-2-1.33-4.87-2-5.78-3.92-1.23-.13-1,.56-1.38.84-1.06.79-1.75.58-2.5-.89-.25-.49-.28-1-1.18-.75s-.91.68-.47,1.12.22,1.14.55,1.63c.51.73,1.16,1.36-.57,1.67a.58.58,0,0,0-.47.93,1.22,1.22,0,0,0,1.56.54c1.79-.83,2.31-.24,2.4,1,.07,1.07,1.83.41,2.27,1.12-4.35,1.55-7.18.76-8.18-2.43-.56-1.79-2.61-2.37-4.34-3.06-2.17-.86-3.53.68-5.3,1.38.82,1.38,2.68,1.51,4.14,2,.7.24,1.58.26,2,.82.17.23.29.58.16.78a1.27,1.27,0,0,1-.94.34c-1.37-.33-2.72-.72-4.05-1.12-.95-.29-1.17-.44-1.62.57s-2.28.25-3.41-.12-.65-1-.31-1.66c.91-1.74.64-2-1.82-1.78a10,10,0,0,1-3.46-.27,6.48,6.48,0,0,0-2.7-.22,32.59,32.59,0,0,1-7.32.56c-1,0-2,.08-2,1s.9,1.11,1.77,1.32a37.72,37.72,0,0,1,4.36,1.17,13.43,13.43,0,0,0-4.36,1.15c-1.4.71-3.28-.44-4-1.64a4.75,4.75,0,0,0-4.63-2.24A13.51,13.51,0,0,1,886,87.17c-1-.62-1.48-1.16-2.84-.37a7.71,7.71,0,0,1-3,.5c-2.09.13-2.31-.1-2.14-1.9-.64-.11-1.08.15-1.18.53-.36,1.29-1.28,1.5-2.83.9-.79-.31-1.43-1-2.45-.78-.77.19-2.7-.44-1.76,1.28.48.86-3.42,2.34-5.06,1.84-1-.3-1.81-.76-2.85-.16-2.11,1.2-4.24.59-6.33-.06-3.12-1-3.11-1-3.83,1.39-1.48.07-1.92-1.29-3.31-1.3-.74.43.12.92-.31,1.59-1.58-.8-3.53-.85-5.28-1.39h0c-1.73-.38-1.91-.37-2.08.47s-.51,1.23-1.74.81a8.25,8.25,0,0,0-1.11-.3c-2.63-.51-5.17-1.75-7.86.14-.95.67-2.95.63-4.42.85-3,.44-4.61,1.56-5.05,3.66a7.13,7.13,0,0,1-.72,1.35c-1.15-1.28-1.43-2.07-.13-3.14s1.18-1.46-1.09-1.84c-.64-.1-1.34,0-1.77-.49-1.11-1.13-2.52-.61-3.93-.43-2.61.31-5.24,1.43-7.86-.07-.44-.25-1,0-1.45.19-1.06.45-2.11.92-3.09-.11-.1-.1-.61-.13-.61-.13-1,2.35-2.95.48-4.43.41-1.21,0-2.17.13-2.62.9s.28,1.21,1.13,1.6c2.07,1,3.86,2.19,7,2.62-4.49,1.37-5.1,1.26-6.73-1.16a4.17,4.17,0,0,0-2.45-1.73c-1.64-.49-3.78-.12-4.88-1.5-1.7.75-3.52-.14-5.25.18-.37.07-.69.36-1,.37-1.37,0-3-.58-3.84.72-.62,1,1,1.71.32,3.38a6.53,6.53,0,0,1,4.34-1.38c1.37,0,2.64,0,2.92,1.4-3,.24-6,.59-8.92.69-2.44.08-3-.41-3.23-2.11-.32-2.3-1.47-3.26-4.35-2.55s-6-.18-8.82,1c-1,.43-5-2-5.54-3.18-.15-.35-.08-.75-.22-1.11a1.22,1.22,0,0,0-1.44-.74c-1,.16-1.11.7-1,1.33s1.39,1.23.6,2.07a1.14,1.14,0,0,1-1.35-.26c-.84-.63-2-1.41-3-.61s.17,1.53,1.46,2.16c-1.36.61-2.24,1.07-3.66.24-1.69-1-3.56-1.31-5,.39a2.38,2.38,0,0,1-2.42.57c-4.56-.78-4.56-.78-8.35-.29.36,1.8,1.78,2.94,4.18,3.37-.39,1.17-1.46,1.26-2.55,1.29-3.55.1-6.87-.11-8.15-3.08-.17-.39-.69-.55-1.23-.62a54,54,0,0,0-7.65-.71c.65,1.41,2.24,1.55,3.46,1.89,1.51.41,2.73.88,2.31,2.19s-1.9,1.32-3.18,1.32c-3.53,0-7.15.4-10.51-.74-1.24-.42-2.83-.65-2-2.21.56-1-.61-1.44-1.94-1.68-2.53-.44-5.3-.46-7.35-1.87a.79.79,0,0,0-1.22.18c-.55.63-1.64.44-2.66.54a12.67,12.67,0,0,0,.56,1.47c1,1.91,2,3.89,5.86,3.07.23-.05.62.29.92.45-.3.91-1.31.38-1.94.56-2.07.59-3.55-.48-5.14-1.06s-3.63,1-5.35-.61l3.47-.14c.62-.47.28-.72-.15-1a14.81,14.81,0,0,0-3.05-.92,7.79,7.79,0,0,1-2.34-.1c-2.37-.81-4.52,1-6.89.27-.38-.12-.66.49-.84.85-.79,1.57-2.63,1.5-4.71,1.66.35-1.67,2-2.35,3.43-3.16-.94-1.09-2.18-.17-3.21-.24-.73,0-1.59.5-2.25.39-3-.52-3.27.86-3.66,2.26a3.25,3.25,0,0,0,.73.4c1.1.22,3.23-.49,2.9,1-.23,1.06-2.08.38-3.14.39a13.32,13.32,0,0,1-4.21-.59c-1.39-.47-2.34-1.39-4.21-.47a35.36,35.36,0,0,0-4.1,1.76c-1.58-2.45-4.58-3.61-8.42-4.6a11.68,11.68,0,0,0,3.12,3.38c-1.71.95-2.84.14-3.9-.43-.9-.49-1.67-.92-2.69-.25h0c.7.35,1.4.82,0,1a13.8,13.8,0,0,1-2.73-.25,13.8,13.8,0,0,0-5.6.33c-2.71.88-6,.36-8.91-.19-1.54-.29-3.11-.37-4.67-.54a6.36,6.36,0,0,0-4.11.74,6.26,6.26,0,0,1-4.68.92c-4-.64-8.48.24-12.25-1.5-2.48,1.12-5.43-1.14-7.86.65-.25.19-1,0-1.5.06a26.39,26.39,0,0,1-6.3-.31c-4.94-.74-9.82.19-14.73.15a10,10,0,0,1-2,0,8.51,8.51,0,0,0-4.72.26c-2.07.63-4.67.37-7,.08-1.13-.13-2.35-.64-3.46,0s-1.53.52-1.64-.51-1.49-.92-2.46-.89c-1.93,0-.58.85-.57,1.35s-.63.65-1.06.46a25.1,25.1,0,0,1-2.38-1.34c-2.22.45-4.45.88-6.65,1.36a2.31,2.31,0,0,1-2.09-.35c-1.57-1.24-2.94-1.19-4.2.35-.14.17-.88.1-1.4.13h.05c-.75.19-1.51.36-2.25.58a2.34,2.34,0,0,1-1.52.13c-4.29-1.52-4.3-1.51-8.38-.45a2.86,2.86,0,0,1-1.94,0c-2.27-1.28-4.31-.26-6.46.27-4.79,1.17-6.37,1-7.85-1.47-.71-1.21-2.44-1.06-4-.63.07.78.91.64,1.44.82s.93.34.86,1a12.06,12.06,0,0,1-4.05.58c-1.8,0-3.67-.54-5.41.38a2.36,2.36,0,0,1-1.52-.09c-2.39-1.19-6-.4-7.91-2.38-.09-.1-.5-.05-.75-.06-1.56.73.62,1.5-.26,2.35-4.13-1-8.81.23-12.93-1.19-.62-.22-1-.12-1.25.3-.83,1.64-2.25,1.25-3.73.62a4.11,4.11,0,0,0-3,0c-2.51.76-3.43.52-5.18-1-1.34-1.19-1.56-1.18-2.62.06a6.8,6.8,0,0,1-7.06,1.8c-2-.64-3.47-1.14-5.61.27-1.67,1.1-1.59-.69-2-1.37-4.36,2.08-8.9,1.34-13.32.69-2.28-.34-4.22-1.16-6.89-.7-1.64.29-3.17-.24-5.12.79-2.8,1.47-6,.68-8.49-1.18-1.81-1.37-3.4-1.18-5.24.32-.71.58-.22,1.79-1.61,1.77-1.84,0-4.19,0-5.25-.9-1.4-1.18-2.38-.7-3.56-.18-2.43,1.06-4.51.39-6.62-.47.08-.9,1.85-1.72.62-2.82a.81.81,0,0,0-1,.25c-1.19,1.41-1.53,1.44-3.09.59-.87-.48-1-1.59-3.05-1.48a11.59,11.59,0,0,1,2.63,3.82c-1.08.61-2.4,0-3.64.33-2.69.71-2.83.56-3.9-1.38l-.15.23a3.14,3.14,0,0,1-.13-.67c-.72-1-1.87-1.11-3.59-.28a27.27,27.27,0,0,1-2.54,1.08,1.8,1.8,0,0,1,.63.71c-.49.38-.83.15-1.28-.48a22.75,22.75,0,0,1-7,1.25l-2.21,0a3.53,3.53,0,0,1-.4,1.4,4.46,4.46,0,0,1-.13-1.39c-2,0-4,0-6-.09a30.27,30.27,0,0,0-4.37-.12c-2.25.16-3.95-1.51-6.42-.94-.16,0-.68-.53-.87-.86-.09-.16-.17-.33-.25-.49a5.44,5.44,0,0,1-1.58.36,6.5,6.5,0,0,1-3.32-.63c-.35.75,1.46,1,.7,2-1.44.31-2.82-.52-4.37-.48-4.08.12-8.21.25-12.23.26-1.69,0-3.47.05-5.25,0,0,.15-.06.31-.09.52-.09-.19-.15-.36-.22-.53q-.67,0-1.35-.09c0,.49-.19.78-.41.82a15.72,15.72,0,0,0-4.23.88c-.28.12-.41-.37-.47-.8s-.12-.67,0-.72a5.44,5.44,0,0,0,.7-.15,26.71,26.71,0,0,0-2.68-.26,3.6,3.6,0,0,0,1.57.91c-1.62,1.3-1.85,1.22-2.6-.83a.69.69,0,0,1-.05-.13c-1.87,0-3.74,0-5.6-.08-.27,0-.55,0-.82-.06h-.14a4.54,4.54,0,0,1,.23,2c.56-1.07,1-1.3,1.55-1.31s1-.1,1.18,1.13a31.58,31.58,0,0,1-3.32.83c-.92.14-1.15-.27-1.33-1.73,0-.34-.1-.63-.15-.9-.46,0-.92-.08-1.37-.14-.53.88-1.78.75-2.88.79-1.6,0-1.13,1.4-2.15,1.76-.24-.1-.52-.15-.63-.28a18.06,18.06,0,0,0-2-2.11c-.39.44-.69.68-1.19.07-.69-.83-1.41-1.07-1.86.43-.18.6-.5.67-.89.54-1.77-.59-1.77-.59-3.17-.1.23,1.55.83,2.52,1.76,2.84-.09,1-.49,1.12-.9,1.17-1.34.15-2.61,0-3.25-2.51a.65.65,0,0,0-.5-.52c-.43-.11-.86-.23-1.31-.32-.46.15-.94.28-1.42.4a2.14,2.14,0,0,0,1.21,1,1.66,1.66,0,0,1,1,1.85c-.08,1-.65,1.18-1.13,1.2-1.34.06-2.69.48-4-.44-.49-.34-1.1-.51-.85-1.87a1.68,1.68,0,0,0,0-.64,4.51,4.51,0,0,0-.83-.39,1.94,1.94,0,0,1-.49-.12,11.56,11.56,0,0,0-2.64-.22,7.87,7.87,0,0,1-1,0c0,.16.07.32.11.46.49,1.64,1,3.33,2.38,2.55.08,0,.25.24.37.37-.06.79-.47.36-.7.53-.76.54-1.37-.36-2-.82s-1.32,1-2.05-.44l1.3-.18a.71.71,0,0,0-.1-.87,4.33,4.33,0,0,0-1.21-.75c-.29,0-.63.13-.89-.06-.94-.67-1.66.93-2.59.31-.15-.1-.23.43-.28.74-.22,1.37-.92,1.33-1.7,1.49a4.22,4.22,0,0,1,1.14-2.76c-.41-.94-.83-.13-1.23-.18s-.58.45-.83.36c-1.16-.41-1.2.79-1.28,2,.13.16.21.3.3.33.43.19,1.2-.45,1.15.87,0,.92-.77.35-1.17.37a2.56,2.56,0,0,1-1.63-.47c-.56-.39-1-1.17-1.63-.36-.47.57-1.07.88-1.48,1.57a6.46,6.46,0,0,0-3.43-3.88,11.76,11.76,0,0,0,1.35,2.89c-.6.84-1.07.16-1.5-.33s-.68-.77-1-.19h0c.27.3.57.7.06.92-.31.13-.7-.16-1.06-.19a2.41,2.41,0,0,0-2.11.35c-1,.79-2.26.37-3.4-.06a10.94,10.94,0,0,0-1.81-.41,1.34,1.34,0,0,0-1.53.66c-.48.75-1,1.07-1.73.81-1.57-.53-3.22.26-4.75-1.24-.89,1-2.13-1-3,.6-.08.16-.38,0-.57,0a4.66,4.66,0,0,1-2.42-.23c-1.93-.62-3.76.2-5.63.19-.26,0-.53.11-.76,0a1.55,1.55,0,0,0-1.79.25,3.17,3.17,0,0,1-2.7.1c-.44-.11-.93-.55-1.32,0s-.57.45-.65-.44-.61-.79-1-.77c-.73,0-.18.73-.16,1.17s-.21.56-.38.39a12.66,12.66,0,0,1-1-1.16c-.83.39-1.66.76-2.48,1.17-.32.15-.58.1-.82-.31-.66-1.08-1.18-1-1.6.29-.05.15-.34.09-.53.11h0c-.28.16-.57.31-.84.49s-.37.28-.58.11c-1.72-1.33-1.72-1.32-3.25-.41-.24.15-.54.24-.74,0-.93-1.11-1.67-.23-2.48.22-1.8,1-2.41.88-3.08-1.3-.32-1-1-.91-1.57-.55.06.68.38.56.59.71a.9.9,0,0,1,.37.87,2.25,2.25,0,0,1-1.54.48c-.69,0-1.43-.47-2.07.31-.12.15-.44.09-.59-.07-1-1-2.33-.36-3.13-2.09,0-.09-.2,0-.29-.06-.58.62.29,1.31,0,2-1.63-.91-3.38.14-5-1.14-.25-.19-.4-.11-.47.26-.26,1.41-.83,1-1.42.5a.8.8,0,0,0-1.16,0c-1,.63-1.32.42-2.05-1-.56-1-.64-1-1,0-.54,1.55-1.64,2.23-2.68,1.48-.79-.57-1.38-1-2.17.18-.61.94-.64-.61-.83-1.2-1.63,1.76-3.41,1.08-5.14.47-.9-.32-1.68-1-2.7-.67-.62.23-1.23-.24-2,.62-1,1.24-2.32.5-3.34-1.15-.75-1.21-1.36-1.07-2,.19-.27.49,0,1.55-.59,1.51-.72-.06-1.64-.06-2.08-.86-.57-1-.95-.65-1.4-.22-.92.87-1.75.26-2.6-.52,0-.77.69-1.45.17-2.43-.15-.11-.27,0-.36.21-.44,1.2-.57,1.22-1.2.45-.35-.43-.44-1.39-1.23-1.33a14.49,14.49,0,0,1,1.12,3.35c-.4.51-.94,0-1.41.23-1.06.58-1.1.43-1.59-1.36-.3-1.11-.78-1.35-1.5-.59a5.48,5.48,0,0,1-3.95,2,19.5,19.5,0,0,1-3.41-.18,5.73,5.73,0,0,0-1.74-.21c-.89.08-1.59-1.4-2.57-1-.06,0-.27-.47-.36-.76-.16-.59-.28-1.2-.42-1.8a1,1,0,0,0-.54.61s0,0,0,0c-.35.63-.36.63-1.06.35-.22.71.59,1,.29,1.81-.57.24-1.13-.52-1.74-.52-1.62,0-3.26,0-4.85-.07-1.4-.07-3,0-4.33-1-.31-.23-.52-.51-.81-.06s-.75.45-1.15,0-.72-.19-1.08-.11a3.76,3.76,0,0,1-3.94-1.06,1.45,1.45,0,0,0-1.86-.34c-1.63,1.16-3.22.81-4.83-.05-.35-.18-.7-.55-1.08-.13-.69.79-1.18.8-1.29-.76,0-.12-.13-.33-.2-.33-1.76,0-3.27-2.33-5.13-1.35a2.64,2.64,0,0,1-.48.14c-.78.27-.8-2.42-1.94-1.09-.78.91-1.53-.29-2.25-.67-.92-.48-1-1.12-.25-2.3A5.78,5.78,0,0,0,82.21,96c.26-.8.63-1,1.18-.81s.94.13.93-.82-.5-.88-.94-.78c-.26.06-.53.27-.75-.18,0-2.14,1.21-3.38,1.68-5.21.22-.85.21-1.25-.27-1.47a5.49,5.49,0,0,1-1.86-1.83c-.68-.9-1.19-.55-1.48.79-.18.85-.41,1.67-.61,2.51-.08.31-.14.65-.41.61a.6.6,0,0,1-.36-.71c.31-1.36-.2-1.65-.93-2.21A15.76,15.76,0,0,1,76,83a.7.7,0,0,1,0-.84c.19-.29.42-.28.55.07.38,1.07,1.26.9,1.78,1.61.18.25.37.44.44-.08.13-.82,1.13-.22,1-1.28s-.8-.68-1.25-.87-.64-.13-1-.28a.65.65,0,0,1-.31-.75c.08-.42.32-.38.53-.24.37.24.76.45.94-.32s.94-1.67.39-2.63A1.71,1.71,0,0,1,79,75.45a1.3,1.3,0,0,0-.14-1.12c-.15-.27-.33-.46-.56-.36a.53.53,0,0,0-.2.58c.13,1,0,1.52-.75.92-.52-.43-.89.1-1.32.28,0-.94-.84-1.31-.61-2.37,0,0,.15-.19.22-.16.41.15.82,1.16,1.24.14.35-.86-.24-1.31-.54-1.83s-.66-1.23-1.2,0c-.27.6-1.21-.09-1.64.86,0,.07-.29,0-.43-.14-.91-.7-1.1-.57-1.17,1,0,.41.12.81-.23,1s-.43-.09-.54-.38a1.58,1.58,0,0,0-1.06-1c-.45-.18-.79-1.15-1.3-.71s.06,1.45-.08,2.17c-.58.08-.34-1.24-.91-1.12-.63.56,0,1.52-.33,2.24a4.27,4.27,0,0,1-.86-3.79c.39-.46.8.48,1.2,0,0-.13,0-.36,0-.4a5.16,5.16,0,0,0-1.11-.91c-1.17-.58-1.43-.2-1.3,1.75,0,.16.09.37,0,.47-.25.55.07,1.76-.64,1.68-.56-.06-.72-.91-.55-1.71s.2-1.48-.53-1.54-.84.53-.77,1.41a5.93,5.93,0,0,1,0,.73c0,.26-.1.52-.26.55s-.4-.12-.41-.23c-.08-1.36-.93-1.78-1.6-2.34a3.91,3.91,0,0,1-1.25-2.24c-.18-.75-.41-1.49-.71-2.54a5.51,5.51,0,0,0-.36,3.44c.11.4.27,1-.28,1.21s-.69-.47-.7-1a11.7,11.7,0,0,1,.12-1.38,9.58,9.58,0,0,1-1.56.26,1.74,1.74,0,0,1-1.43-.7,3.82,3.82,0,0,0-.49.72c-.64,1.55-.64,1.56-1.55.31-.13-.17-.41-.48-.43-.45-1,.93-2.3-.2-3.29.69-.45.38-.78.4-1.15,0s-.67-.37-1,0a.73.73,0,0,0,.14,1.07,3,3,0,0,1,1.15,1.45c.07.22.17.43.26.64-.29.1-.43-.25-.61-.24A4,4,0,0,1,45,71.44a10,10,0,0,1-2-2c-.48-.62-1.08-.59-1.6.1-.4.5-.69,1.22-1.53,1.1a14.28,14.28,0,0,1-3-.69c-.44-.17-.27-.71.2-.94a2.34,2.34,0,0,1,1.5-.13c1.22.24,1.38-.59,1.57-1.43.23-1-.31-1.31-1.19-1.45a6.12,6.12,0,0,1-1.78-.52,3.52,3.52,0,0,1-1.42-1.3c-.08-.14-.28-.21-.38-.34-.86-1.14-2.31.94-2.67-.25-.48-1.53-1.65-1.11-2.57-1.47-.68-.26-1.3-.3-1.68.33-.56,1-1.32.54-2.14,0-.54-.35-.7-1.37-1.54-1s-1.81.78-1.53,1.71c.33,1.1-.39.86-1.14.77-1.79-.28-3.54-.6-3.72,1.34-.05.57-.86.25-1.29-.12-1.1-.94-1.05-1.88.13-2.33.88-.34,1.9-.49,2.8-.79,1.36-.43,2.93-.7,2.36-2.7,1.41.64,2.37,1,3.34,1.38,1.17.5,2.44.82,3.2-.07s1.66-1.81,1.2-3.24c-.31-1-.46-1.53-.22-1.82s.82-.41,1.92-.68,2.75-.09,3.23-1.61a4.3,4.3,0,0,1,1.83,1.68,6.4,6.4,0,0,1,1.07.25,1.82,1.82,0,0,0,2.51-.61c.7.64-.19,1.62.75,2.15.51-.19,0-1,.47-1.27s1-.21,1.5-.4a6.64,6.64,0,0,0,1.58-.71c.38-.29.46-1.09.1-1.28-.94-.51.16-2.65-1.44-2.47-.13,0-.25,0-.38.06A5.93,5.93,0,0,0,41,48.15a.62.62,0,0,0-.59,0c-.38.23-.1.45,0,.74.34,1.07-.5,1.55-1.09,2.07s-.89,0-1.3-.4c-1.73-1.76-2-1.66-3,.89a12.35,12.35,0,0,1-2-5.46c0-.46,0-.87.38-1,.6-.27.9.2.9.69a3.14,3.14,0,0,0,1.62,2.64c.79-.39-.06-1.36.74-1.7.67.52.78,1.65,1.82,2,.64-.23,0-1.91,1.31-1.67.49.09.37-.53.07-.83s-.52-.4-.27-.74.61-.11.91.1c.69.46.94,1.29,1.41,2a.57.57,0,0,0,.74.25A.72.72,0,0,0,43,46.8a2.59,2.59,0,0,1,.81-2.58c.42-.34.07-.73-.18-1s-.59-.38-.7.28c-.06.33-.28.87-.39.77-.84-.75-1.87-.29-2.78-.57a2.62,2.62,0,0,1-1.56-2,3.66,3.66,0,0,0-.3-.88c-.12-.29-.31-.52-.64-.38a.8.8,0,0,0-.43.79,6.11,6.11,0,0,0,.28,2.37.7.7,0,0,1-.27.86c-.31.2-.57,0-.75-.26s-.53-.64-.54-1c-.06-2-.83-3.79-.84-5.73.66-.67,1.06.35,1.63-.15.73-.64.91-.35.8.64s.58.71,1,.58c.94-.29,1.79-.77,2.7-1,.51-.11.95-.3.86.62-.07.76.64.93.6,1.64-.08,1.53.47,1.81,1.54,1.09a1.14,1.14,0,0,1,1.59.17c.34.36.78.57,1.15,0s.48-1.52.11-1.78c-.87-.63-.72-2.83-2.29-2.3-.33.12-.63-.46-.72-.9a1.35,1.35,0,0,1,.68-1.35,11.76,11.76,0,0,1,2.25-1.45.65.65,0,0,0,.18-1.18,8,8,0,0,1-1.42-1.48c-.11-.14-.37-.3-.42-.24-1.12,1.5-1.35-.26-1.89-.76-.79-.71-.93-.59-1.35,1.18,1.3-.16,1.76.52,1.65,2.3-.06.92-.53,1.17-2.09,1,.14-.83,1.17-.5,1.12-1.45,0-1.38-1.29-.33-1.59-1.24-.61.44-.15,1.28-.6,1.73-1.38-.25-1.37-.26-2.37,1.14-.74-1.46.06-3.1.58-4.24a8.59,8.59,0,0,0,.74-2.44,11.61,11.61,0,0,1,1.61-3.46c.08.82,1.54.34.48,2-.24.36,0,.77.32.73.73-.1,1.42-.27,2,.28.27.24.52-.21.69-.54s.2-.91,0-1.05C43,24.77,42.86,22.5,42,21.38a2.6,2.6,0,0,1-.51-.93,2.12,2.12,0,0,1,0-1.7c.27-.53.64-.34,1-.43a3.62,3.62,0,0,1,2.77.27c0,1.17-.74,1.18-1,2,.4.71,1,.08,1.47-.11s.32-.91.35-1.44c0-.86.35-1.2.79-1s.69.68,1.15,0c.17-.73-.18-1-.31-1.39-.57-1.83-.55-1.79-1.66,0-.41-1.14-.88-2-1.65-2.33-.36-.16-.51-.91-.44-1.74a22.49,22.49,0,0,1,.9-2.7c.11-.43.49-.14.74-.17.42-.06.68.31.53,1.33-.21.14-.3-.08-.4-.25s-.14-1.09-.55-.49a3.25,3.25,0,0,0-.41,2c0,.66.38.31.7.18a11.19,11.19,0,0,0,2-1,8.34,8.34,0,0,0,2-1.83,23.71,23.71,0,0,0-1.28-4.32C48.72,5,49.4,5,49.64,3.32c.07-.42.31-.49.48-.42.37.16.57.71.71,1.54.21,1.22.42,2.6,1.39,2.08.21-.11.46.27.43.86-.11,2.67,1.23,2.82,2,4.12.1.18.25.09.32-.19a1.33,1.33,0,0,0,0-.9,4.92,4.92,0,0,1-.84-1.92c.74-.7.81,1.52,1.52.92,1.15,1.23,1.45,1,2-1.91.3.13.31.7.44,1.09.24.72.58.73.89.13.71-1.34,1.46-1.36,2.37-.94s2.14.52,3.15,1.48c.21.21.48.29.68,0C65.7,8.44,66.46,9,67,8.14a9.21,9.21,0,0,0-.83-2.63c-.33-.72-.78-1-1.4-1-.79.13-1.58-2.29-1.18-3.48.16-.49.41-1,.78-1s.68.25.84.79A6.11,6.11,0,0,1,65.44,2,4.35,4.35,0,0,0,66,4c.42.67.78.12,1.18-.21s.67,0,.68.75a9.73,9.73,0,0,1-.11,1.2,5,5,0,0,0,0,1.69c.18.77,1,.4,1,1.58,0,.1.58-.12.87-.55.8-1.17.86-1.18,1.59.18.34.63.61.71,1,.28.2-.23.28-.48,0-.66s-.44-.24-.12-.56.65-.34.68-.23c.66,1.94,2.3.32,3,2.28.07.24.38.21.5-.1A.54.54,0,0,0,76,8.88c-.62-.48-1-1-.15-1.79A1,1,0,0,0,76,5.88c-.33-.75-.39-2.13-1.1-2s-1.24.82-1.35,2.56a11.49,11.49,0,0,1-.93-3.17v0c.23-.8-.63-1.69-.08-2.22s1.26-.16,1.78.4a6.43,6.43,0,0,0,2,1.57c.58.27,1-.25.77-1.07A9.71,9.71,0,0,1,76.81.36Q76.39.2,76,0h5.1l.06,0V0h1A1,1,0,0,0,82,.33,29.38,29.38,0,0,1,84.6,1.62a1,1,0,0,1,.45,1.29.76.76,0,0,1-1.15.43,17.07,17.07,0,0,0-4-1.84,3.35,3.35,0,0,1-.18.46l-.32-.64L77.65.7c.32,1.5.9,2.62,1.58,2.79a3.07,3.07,0,0,0,2.31,0,1.92,1.92,0,0,1,2.61.28c.8.74,1,.43,1.73-1.28.49-1.11-.07-1.62-.4-2.25,0-.08-.1-.14-.14-.21h8c.19.79.38,1.53-.22,2.15,1.54,1.26,1.55,1.26,2.25-.58a2,2,0,0,1,.29,1.93c-.15.58-.12.94.27,1s.5-.37.51-.89a4.4,4.4,0,0,0-.08-1A4.61,4.61,0,0,0,94.93,0h3.19c.14.7.41,1.23,1.06,1.28A2.39,2.39,0,0,1,98.82,0H1101.66c.14.18.28.38.46.64-.77.47-1.48-.43-2.34-.11.63.81,1.25,1.63,1.92,2.42a17,17,0,0,0,5.15-.27,2.63,2.63,0,0,0,.37-2.68h4.24a2.47,2.47,0,0,1,.64.75c.46-.22.48-.48.42-.75h1.28c1.22,1.58,3.47,2.41,6,2.83a5.45,5.45,0,0,1,3.67,2.27c-1.27.16-2-.76-3.27-1-1.24,1.36.62,2.77,0,4.23-1.54-.36-.85-1.85-2.39-2.11-.87.75.29,1.93-.57,2.71-1.36-.3-1-1.06-1-1.49,0-1.7-2.5-2.06-3.43-3.26-.32-.41-1.56-.17-2.24,0-.88.27-.3.76,0,1.19.56.84-.14,1.08-1.07.89-2.07-.43-2.63.46-2.14,1.46.88,1.81-1.64.58-2,1.32.86,1.53,3,1.88,4.85,2.47l.13-.08a.49.49,0,0,0,0,.12l-.14,0,.48,1.92a35.27,35.27,0,0,1-8.78-2.45c-.72-.27-.16-.6-.06-.93.22-.79-.51-1.14-1.34-.78a5.38,5.38,0,0,1-2.12.39,64.24,64.24,0,0,1,5.48,4.12,13.08,13.08,0,0,1-2.31-.42l0,0c1.57,1.82,3.35,2.44,6.46,2.12,2.41-.26,1.34,1.24,1.09,2.14h0a2.48,2.48,0,0,1-.47,1.62,2.56,2.56,0,0,0-.19,3.46c1,1.59-1,5.39-2.94,6.24a6.8,6.8,0,0,1-4.38-.9,1.7,1.7,0,0,1-.54-.76c-.38-1.08-1.41-1.45-2.71-1.14-1.92.46,0,1.43-.3,2.31-1.44.77-4.36-.38-5.27,1.47a2.35,2.35,0,0,1-.66-.16c-2.2-1-2.54.32-2.74,1.21-.27,1.22,1.28,1.22,2.44,1.36a9,9,0,0,0,2.74-.06,4.75,4.75,0,0,1,3.71.59,8.09,8.09,0,0,0,5.23,1c.44,1.86,0,2.56-1.9,3-.61.14-1.31.11-1.94.22s-.93.27-1.63.48a4.5,4.5,0,0,0,3.64,1.62c4.38.05,8.59,1.37,13,1.31a2.77,2.77,0,0,1,2.61,1.2c-.58.88-1.93,1.3-2.71,2.15s-2.95,1.33-4.95.65c-2.29-.77-4.41-.75-6.22.91a5.87,5.87,0,0,0,3.26.61c1.46-.06,2.31.44,2.62,1.41s-.54,1.6-1.63,2a3.67,3.67,0,0,1-1.89.25c-2.62-.66-5.58,0-8-1.39-.88-.5-1.64-.19-2.56,0-2.94.65-3.93,0-3.29-2.14.28-1,0-1.34-1.26-1.69a5.52,5.52,0,0,0-4.15,0c.22.28.33.59.6.74,1.3.67,2.51,1.66,1.54,2.6s-3,.93-4.37.4c-1.94-.75-3.65-1.08-5.54-.21a1.1,1.1,0,0,1-.72.08c-3.15-1.61-3,.64-3.81,1.63-1,1.17-.1,2,1.49,2.47,1.11.34,2.27.58,3.41.87.77.19,1.59.4,1.56,1.12s-.1,1.38-1.49,1.24c-.42,0-.88,0-.77.36a1.15,1.15,0,0,0,.81.51c2.15-.34,4.18-.69,6.32.44.61.32.81-.4.28-.85-.27-.23-.53-.53-.13-.72a1.58,1.58,0,0,1,1.07,0,19.07,19.07,0,0,0,3.6,1.57c0,.84-2.35,1.31-.78,1.87,2.31.87,1.41,2.31.78,2.58-2.28,1-.59,2.09,0,2.86.79,1.11,2.17.41,3.29.32,0-.67-.42-.63-.84-.6-1.91.14-1.84-.71-.87-1.22a9.5,9.5,0,0,0,3.27-2.93,2.74,2.74,0,0,1,3.77-.83c2,1,3.23.14,4.69-.38a1.56,1.56,0,0,0,.6-.33c1.75-1.86,1.77-1.88,3.5-2.38,1.59.66,3.55,1.24,3.6,2.72.05,1.65,1.1,1.94,3,1.8a2.75,2.75,0,0,1,2,.22c.48.78,0,1.59,0,2.42s.19,1.69,1.69,1.89c-.08.43-.17.87-.32,1.62-1.65-1-1-2.73-3.1-2.77-1.57,1.6,1.06,3.61-1.28,5.27,2.23.07,4-.38,5.32.79Zm-19.08-22.43a.77.77,0,0,0,.84.4.51.51,0,0,0,.35-.4c0-.29-.27-.51-.68-.52S1099,46.83,1099.08,47.13Zm-10.16-9.54c.35.77,1.38.28,2,.62s1.44,1.07,2.41.42a.43.43,0,0,0,.06-.53c-.5-.74-1.5-.73-2.41-.8C1090.29,37.24,1089.41,36.87,1088.92,37.59Zm18.74-20.29c.43.14.89.23,1.35.34a3.74,3.74,0,0,0-.62-.87c-.32-.27-.87-.51-1.23-.1C1106.94,16.91,1107.3,17.18,1107.66,17.3ZM1102.6,6.93a1.77,1.77,0,0,0,1.79.27.73.73,0,0,0,.36-1.2.8.8,0,0,0-1.23-.22C1103.32,6.21,1101.78,6.13,1102.6,6.93Zm-2.29-.1c-.5,0-.68.19-.57.49a.83.83,0,0,0,.86.46c.16-.12.44-.24.46-.37C1101.09,7.08,1100.73,6.88,1100.31,6.83Zm-2-3.12c.26.21.54.41,1.08.81.37-.48.66-.7.69-.94a1.77,1.77,0,0,0-1.39-2,8.63,8.63,0,0,1-1.2.27C1097.22,2.5,1097.58,3.14,1098.27,3.71ZM1095,13.24c2,.75,3.41.6,4.61-.61a16.34,16.34,0,0,1-3.83-2.92,1.27,1.27,0,0,0-1.06.89C1094.32,11.54,1092.52,12.33,1095,13.24ZM1090.84,17a3.91,3.91,0,0,0,2.83,1.21C1093.21,17.06,1092.31,16.88,1090.84,17ZM1079.3,30.48c.44-.12.59-.38.35-.68a1,1,0,0,0-1.05-.22c-.38.15-.64.37-.37.68A1.09,1.09,0,0,0,1079.3,30.48Zm.72,6.59c-.93-.13-1.43.35-1.17,1a5.55,5.55,0,0,0,.6,1.05c.69,1,.14,2.36,1.66,3.09,2,1,3-.57,4.52-1,.3,0,.7,0,1.08-.1,1.65-.3,1.23-1.34,1.06-2.06-.24-1-1.82-2.44-2.56-2.11C1083.32,37.83,1081.78,37.3,1080,37.07Zm-1.92-19.68a1.44,1.44,0,0,0,1.59.48c.38-.12.53-.42.36-.69a1.36,1.36,0,0,0-1.59-.47A.47.47,0,0,0,1078.1,17.39ZM74,1.8c-.19-.22-.46-.38-.65-.05s-.44,1-.66,1.43c.32-.39.61-.12.92.06s.46.06.57-.4A1.13,1.13,0,0,0,74,1.8Zm-29.54,27c0-.15-.23-.2-.31-.28a.57.57,0,0,0-.33.55c0,.29.15.37.31.33A.42.42,0,0,0,44.43,28.84Zm2.14-7.13c-.06-.28-.15-.52-.4-.41A1.2,1.2,0,0,0,46,22.35c.07.28.24.45.44.22A1,1,0,0,0,46.57,21.71Zm-6.2,19c.26-1.17.09-1.55-.61-1.51a.72.72,0,0,0-.72.92c.26,1.08.35,2.4,1.73,2.72C41,41.88,40.18,41.51,40.37,40.71ZM36.87,55c-.37,0-.72,0-.58.6a.41.41,0,0,0,.36.21C37.2,55.61,37.07,55.29,36.87,55Zm2.64,5.16c-.14-.37-.32-.54-.58-.47a.41.41,0,0,0-.23.6c.09.25.28.43.54.36A.42.42,0,0,0,39.51,60.12Zm93.21,30.42a.69.69,0,0,0,0,.42c.49.58.91-.28,1.42-.22C133.71,90.63,133.22,89.87,132.72,90.54ZM130,89.26c.06.33.26.56.46.45s.09-.51.05-.8-.21-.62-.44-.29A1.2,1.2,0,0,0,130,89.26Zm-2.89.68c.64.73,1.16,1.17,1.81.66a.85.85,0,0,0,.23-.8c0-.38-.24-.67-.44-.5C128.25,89.71,127.66,89.07,127.1,89.94Zm-.32,5.58c1.45-.43,1.45-.43,2.7-2.32-.25-.34-.46-.22-.62.16s-.51.91-.88.63C127,93.27,127,94.46,126.78,95.52Zm2.3.94c-.11-.3-.28-.47-.49-.34s-.17.33-.11.58.3.42.51.31S129.16,96.68,129.08,96.46Zm-3.09-10c.06.26.21.34.36.23a.51.51,0,0,0,.14-.34c-.06-.25-.2-.31-.36-.24S126,86.33,126,86.41ZM122.8,87c.14.12.29,0,.39-.19a.35.35,0,0,0-.07-.44c-.09,0-.27-.06-.36,0A.47.47,0,0,0,122.8,87Zm-1.1,6.5a.83.83,0,0,0,.1.84c.15.25.36.43.49.06a1.06,1.06,0,0,0-.19-.86C122,93.3,121.84,93.3,121.7,93.46Zm-.83-9.78c.19.35.44.44.68.28s.26-.63.17-1c-.13-.55-.36-.43-.59-.17S120.67,83.17,120.87,83.68Zm-1.16-38.56c0,.08,0,.14.05.2s0,0,0,0,.35-.18.54-.26h0a.27.27,0,0,0-.39-.19A.45.45,0,0,0,119.71,45.12Zm.6,44c-.11-.18-.24-.24-.39-.16a1,1,0,0,0,0,.38c.08.22.23.27.37.16A.3.3,0,0,0,120.31,89.1Zm-6.19-.86c-.22.1-.27.42-.2.8.26.53.59.59.94.31a.49.49,0,0,0,.08-.61C114.72,88.38,114.44,88.1,114.12,88.24Zm-1.79-4.36c.67.31,1.36.55,2.13.86a4.94,4.94,0,0,0-1.79-2.48c-.37-.16-.61-.19-.71.45S112,83.71,112.33,83.88Zm-5.3-39c0,.46.13.88.43.8s.29-.7.15-.93c-.31-.48-.2-1.2-.55-1.79A5.43,5.43,0,0,0,107,44.84Zm-2.64,27.27c.23.07.35-.18.49-.37s.07-.27-.08-.22a.93.93,0,0,0-.39.23S104.4,72,104.39,72.11ZM103,84a1.29,1.29,0,0,0,1.69,0,.93.93,0,0,0,.19-.58.36.36,0,0,0-.32-.41C104,83,103.48,83.18,103,84Zm-.06-16.64a.49.49,0,0,0-.09.5c.14.32.28.39.41.21a.76.76,0,0,0,0-.43C103.22,67.45,103.08,67.27,102.93,67.39Zm-.41-7.77a.23.23,0,0,0,.25.08s0-.22.06-.32-.24-.28-.36-.12A.6.6,0,0,0,102.52,59.62Zm-.14,5.21c.1.24.23.59.46.29a1.25,1.25,0,0,0,.11-.67c0-.39-.23-.57-.45-.46S102.3,64.47,102.38,64.83Zm-1.59-3.23a.7.7,0,0,0,.53.77c.21.05.42-.08.53-.36s-.08-.56-.23-.75c-.29-.38-.18-1.14-.64-1.47C100.91,60.41,100.8,61,100.79,61.6Zm.71,2.57c-.1-.2-.26-.23-.41-.1a1.44,1.44,0,0,0,0,.42c.11.23.28.26.4.1A.61.61,0,0,0,101.5,64.17Zm-.71,18.18c0-2.19-1.08-2.48-2-3.23-.33,2.82-.4,3.09-1.12,4.4.42,0,1-.42,1.23.08.8,1.55,1.87.73,2.8,1.08.21.08.45.16.52-.24a.61.61,0,0,0-.45-.79A1.15,1.15,0,0,1,100.79,82.35Zm-1.12-5.84c.1,0,.21,0,.29,0a.19.19,0,0,0,0-.33.16.16,0,0,0-.15,0C99.64,76.22,99.61,76.34,99.67,76.51ZM98.4,2.35C98.84,4,98.84,4,99.66,4.87c.25-.37-.19-1,.16-1.3s.69.13.78-.81Zm-.11,61.42c-.07.5,0,1,.43,1.09a2.38,2.38,0,0,0,.92,0c.17,0,.21-.31.16-.69-.16-.53-.56-.53-.89-.66S98.36,63.17,98.29,63.77Zm-.16-55.2a1.29,1.29,0,0,0,.07.4c.08.15.16.09.14-.12a1.69,1.69,0,0,0-.12-.36S98.12,8.55,98.13,8.57Zm-.48,65.14c-.23-.41-.59-.45-.7.24-.07.48,0,1.21.37,1.08.55-.2.94.71,1.56.32C98.69,74.17,98,74.31,97.65,73.71Zm-1.38-30c-.19-.18-.39-.08-.56.13a.83.83,0,0,0-.3.74,1,1,0,0,0,.38.71c.46.39,1,.08,1.45.67.11.14.29.26.4,0a1,1,0,0,0-.09-.88A16.35,16.35,0,0,0,96.27,43.68ZM93.4,74.84c1.17,2.62,1.39,2.66,2.53,0,.58-1.36.57-1.25-.51-1.59-.62-.19-1.4.18-2-.91.74-.55,1.64.46,2.16-1.1-1-.82-2-.34-2.86-.86-.34-.19-.86.41-.48,1.24C92.74,72.61,92.94,73.81,93.4,74.84Zm-.53.34c-.13-.24-.33-.38-.45-.22a.64.64,0,0,0-.08.72c.18.29.42.5.64.11A1,1,0,0,0,92.87,75.18ZM88.6,88.35c-.46-1.13-.32-2.69-1.17-3.48-.17-.16-.38-.33-.57-.13a1,1,0,0,0-.1.88A3.37,3.37,0,0,0,88.6,88.35Zm-1,.59c-.07-.33-.31-.36-.54-.18a.9.9,0,0,0-.14,1c.08.22.25.33.39.19A1.1,1.1,0,0,0,87.6,88.94ZM85.24,33a2.17,2.17,0,0,1,.66.11c-.15-.29-.34-.54-.59-.25A.37.37,0,0,0,85.24,33Zm.88-2.23A1.65,1.65,0,0,0,85,29.21C85.23,30.23,85.43,31,86.12,30.81ZM88.8,59.69c.12,0,.2-.14.16-.33s-.22-.53-.46-.5c0,.12-.17.25-.15.35C88.4,59.56,88.57,59.72,88.8,59.69Zm-.39,17.52a1.23,1.23,0,0,0-.38-.13c-.1.21-.08.34,0,.39a.43.43,0,0,0,.29,0A.18.18,0,0,0,88.41,77.21ZM86.68,60.6c0,.32.07.65.27.71.83.27,1.12,1.2,1.17,2.47C88.68,61.06,88.28,60.24,86.68,60.6Zm-1.45-4.05A8.42,8.42,0,0,0,86.82,59C87,57.09,86.29,56.86,85.23,56.55Zm0-2.44a.56.56,0,0,0-.08.61c.09.29.21.62.44.53s.23-.46.12-.74S85.41,54,85.18,54.11Zm-.44,5.25c-.37.67,0,1.38.22,2s.59.94.92.24a3.87,3.87,0,0,1,.75-1c-.3-.16-.39-.73-.66-.9S85.15,58.63,84.74,59.36Zm.15,21.69c.18.37.33.44.48.32a.59.59,0,0,0,.12-.64c-.13-.31-.33-.41-.53-.17A.58.58,0,0,0,84.89,81.05ZM85.8,65a.83.83,0,0,0,.16-.83c-.13-.38-.38-.65-.64-.49s-.23.63-.13,1S85.52,65.3,85.8,65Zm-.22,6.64a3.44,3.44,0,0,1,1.87-.47c.15,0,.3-.18.27-.47a.64.64,0,0,0-.17-.36C87,70,86.11,70.48,85.58,71.62Zm1.63,8.23c-.24-.13-.41-.08-.48.32a.45.45,0,0,0,0,.23c.19.33.38.16.56,0a4.06,4.06,0,0,0,.32-.37A3.16,3.16,0,0,1,87.21,79.85Zm2.32.21c-.69-.83-1.25-.36-1.81-.07C88.27,81,88.82,81.18,89.53,80.06ZM89,54.64c0,.66-.1,1.19-.09,1.71,0,.15.18.33.31.43s.18-.11.21-.22C89.56,55.89,89.73,55.2,89,54.64Zm.51-2.31c-.1-.2-.25-.22-.39-.08a.49.49,0,0,0,0,.59c.08.08.22.15.29.09A.46.46,0,0,0,89.47,52.33Zm1.33-8.47A1.24,1.24,0,0,1,90,42c.09-.25-.1-.69-.33-.66s-.59-.37-.67.1c-.34,1.88-1.29,1.21-2.06,1.3-.32,0-.6-.75-1-.14,0,.1,0,.18,0,.26,0,2.46,1.89.75,2.15,2.6,0,.12.25.23.39.23s.39-.09.41-.21C89.14,44.14,90,44.45,90.8,43.86Zm-2.49-4.93a.17.17,0,0,1-.1,0c-.2.24-.38.45-.2.79,0,.08.18.08.29,0a1.47,1.47,0,0,1-.15-.31A.47.47,0,0,1,88.31,38.93Zm.7-3.44a34.45,34.45,0,0,0-1.57-5.16.21.21,0,0,0-.39-.07.73.73,0,0,0-.13.39A17.4,17.4,0,0,0,89,35.49Zm1.55,26a.87.87,0,0,0,.37.37c.12,0,.16-.14.1-.33a1.59,1.59,0,0,0-.39-.35C90.53,61.13,90.47,61.34,90.56,61.49Zm.19-4c.23-.14.22-.46.06-.72s-.31-.37-.52-.24a.62.62,0,0,0,0,.62C90.37,57.42,90.55,57.62,90.75,57.49Zm.32-2.21c-.33-.86-.57-1.22-1-1.34C90.12,54.8,90.47,55,91.07,55.28ZM89.91,71.49c0,.29.15.43.32.4s.28-.21.2-.49-.21-.3-.38-.26A1.11,1.11,0,0,0,89.91,71.49Zm1-5.13c.32.35.71.62,1,0,.31-.79.54-.77.93-.14a1.55,1.55,0,0,0,.82.66c.34.09.82.25,1-.35A1.17,1.17,0,0,0,94,65.05c-.72-.23-1.07-.85-1.15-1.92-.61.4-1.15,1.14-1.93.77-.29-.14-.64,0-.7.65A2.17,2.17,0,0,0,90.86,66.36ZM92,41.52c.22,0,.34-.3.32-.63,0-.48-.27-.61-.53-.6s-.28.21-.26.46C91.53,41.17,91.7,41.49,92,41.52Zm2.9,21.4c-.1-1-.48-1.59-1-1.58s-.83.83-.94,1.69C93.52,62.6,94.18,63.28,94.87,62.92Zm1-2.88c0,.24.16.39.31.28s.16-.34.1-.57-.16-.25-.23-.23S95.8,59.81,95.83,60Zm-.7-21.23c.39.76.71.92,1.16.6C96,38.72,95.63,38.68,95.13,38.81Zm-.42,9.74c.1.15.26.36.37.34s.19-.34,0-.52a1.43,1.43,0,0,0-.41-.26C94.71,48.29,94.67,48.5,94.71,48.55Zm-.86,11.17c.48.41.72,1.56,1.41,1.29a.69.69,0,0,0,0-.42C95,59.77,94.4,59.8,93.85,59.72Zm0-14.06a.7.7,0,0,0-.09.81c.16.32.36.66.63.46s.19-.54.09-.84S94.15,45.54,93.87,45.66Zm-.68-1.14c.14.29.32.34.51.19a.55.55,0,0,0,.13-.73c-.15-.25-.36-.2-.53,0A.56.56,0,0,0,93.19,44.52Zm-.55-35.8c.08.27.19.49.39.47s.16-.18.09-.32S92.82,8.61,92.64,8.72Zm0,0a2.36,2.36,0,0,0-.42-.59c-.33-.24-.69-.7-1-.1a1.16,1.16,0,0,0,0,.65c.23.63.6.81,1,.57A1.79,1.79,0,0,0,92.59,8.7ZM90.67,2.79c.2.58,1.12.59,1.51.12.21-.24.19-.52.06-.93C91.88,1.6,91.53.76,91,1.16A1.53,1.53,0,0,0,90.67,2.79Zm-.81.64c0,.26.15.36.28.24s0-.25.08-.38-.16-.19-.22-.17A.41.41,0,0,0,89.86,3.43Zm-.53,4.43a1.38,1.38,0,0,0-.12.86,1,1,0,0,0,.14.27c.14,0,.27,0,.41.06.19-.15.38-.46.59-.6C90,8.1,89.84,7,89.33,7.86ZM86.6,1c.07,2.16,1.69,1.87,2.07,3.57,0,0,.18,0,.26-.08a3.59,3.59,0,0,0,.35-2.66c-.18-.62-.49-.74-.87-.44-.63.5-1.12.47-1.28-.94,0-.14-.23-.23-.33-.32C86.56.34,86.59.65,86.6,1Zm-.72,3.92c.16.71.52.67.86.5s.22-.49.11-.8c-.16-.48-.37-.77-.84-.37A.73.73,0,0,0,85.88,4.91ZM81.62,8.33c.42.43.9.7,1.4.39a3.37,3.37,0,0,1,2.17-.53c.64.06.85-.57.9-1.41-1.45-1.2-2.78.74-4.16-.22-.28-.18-.42.32-.51.7A1.12,1.12,0,0,0,81.62,8.33ZM84.1,36.05c-.24-.09-.59-.79-.68-.09s.43.56.76.5C84.15,36.3,84.14,36.07,84.1,36.05Zm-.78-4.58c-.09-.32-.21-.57-.37-.45a.69.69,0,0,0-.24.7c.1.31.29.48.5.35S83.38,31.7,83.32,31.47ZM82.25,55.73c-.4-.28-.8.09-1.28.24a12.54,12.54,0,0,0,1,.91c.2.15.4,0,.47-.37A.73.73,0,0,0,82.25,55.73Zm-.09-31.17c-.09-.22-.23-.28-.38-.21a.67.67,0,0,0-.09.62c.08.24.23.29.37.17A.51.51,0,0,0,82.16,24.56Zm-1,17.61a.86.86,0,0,0-.43-.25c-.28-.1-.38.13-.34.53.17,1.55-.4,1.25-.87.74s-.88-1.08-1.71-.31c1,.5,1.38,2,2.38,2.2.69.17,2.21-.12,2.24-.83C82.44,43,81.57,42.83,81.12,42.17Zm-.64,27c.26.3.62.57.92.1s.63-.86.39-1.4-.75-.31-1.12,0S80.32,68.51,80.48,69.13ZM78.18,55c.56-.17.33-1.39.66-2a2.56,2.56,0,0,0,0-.62c-.71,0-1.4-.57-2.19-.18-.09.78.28.83.38,1.18C77.25,54.17,77.52,55.16,78.18,55Zm-.75.89c-.1-.28-.26-.48-.49-.33s-.27.41-.19.77.24.47.47.29A.61.61,0,0,0,77.43,55.86Zm-.67-12.13a.52.52,0,0,0,0-.62c-.12-.2-.29-.22-.42,0a.69.69,0,0,0,0,.66C76.49,43.93,76.64,43.88,76.76,43.73ZM78.14,58c.17.45.18,1.18.7,1,.36-.14.5-.56.33-1.08s-.3-1.07-.8-.84A.8.8,0,0,0,78.14,58Zm.6,6.6a.82.82,0,0,0,1.09.57c.21,0,.25-.48.16-.79-.22-.71-.62-.75-1-.61A.89.89,0,0,0,78.74,64.6Zm1.79-33.26c0,.19.21.5.27.47.29-.11.31-.53.24-.92,0-.23-.17-.35-.33-.34A.75.75,0,0,0,80.53,31.34Zm.73-2.48c-.22-.55-.48-1-.94-.81a.89.89,0,0,0-.22.84c.24.61.64.72,1,.56C81.29,29.4,81.35,29.09,81.26,28.86Zm-.85-7.08a1.94,1.94,0,0,0,.15.63c0,.1.15.11.27.18-.07-.25-.14-.46-.2-.67S80.41,21.69,80.41,21.78Zm-4.63,3.38c0,1.07.9.92,1.13,1.78.14.5.38.8.69.83.54.07.8,1.8,1.15,1.09.44-.91-.39-1.55-.83-2.1-.76-1-.31-1.44.24-1.92.6,2.26,1.62,2.4,2.9.35-.56-.48-.72-2-1.64-1.72.09.77.29,1.6-.15,2s-.88.21-1.11-.63c-.16-.14-.14-.4-.17-.63-.22-1.48-.55-1.73-1.06-.58C76.59,24.39,75.8,24.19,75.78,25.16Zm-4.66-12.4c.07.23.23.37.37.26a.62.62,0,0,0,.06-.64c-.07-.21-.2-.34-.33-.28A.62.62,0,0,0,71.12,12.76Zm-.43,6.79A25.56,25.56,0,0,1,71.27,26c0,.08,0,.16,0,.24a1.35,1.35,0,0,0,.77,1.32c.45.2.67,0,1-.71.56-1.31,1.09-1.19,1.71.08a9.43,9.43,0,0,0,.71,1.25c.18.27.43.52.65.08a1,1,0,0,0-.08-.89,12.76,12.76,0,0,1-1.3-3.26c-.06-.27-.34-.59,0-.75,1.06-.55.05-1.44.14-2.15.11-.9,0-1.82-.65-2.19-.24,1.95-1,2.77-1.65,1.54S71.44,20.07,70.69,19.55Zm4.93,32.66a1.21,1.21,0,0,0-.08-1.11c0-.07-.18,0-.28,0a1,1,0,0,0,0,.89C75.35,52.18,75.5,52.46,75.62,52.21Zm-.56,2.7a.54.54,0,0,0-.25.54c.06.36.27.49.48.31a.86.86,0,0,0,.26-.54C75.49,54.86,75.29,54.78,75.06,54.91Zm.79-9.41c-.21-.7-.6-.75-.92-.6s-.37.4-.27.61a.91.91,0,0,0,1,.58A1,1,0,0,0,75.85,45.5ZM76,41.82c-.48-.29-.89-.06-1.23.43a1.17,1.17,0,0,0,0,1.27c.21.35.48.27.66-.06A2.84,2.84,0,0,0,76,41.82Zm-1.41-11c.07-.08,0-.43,0-.63s-.2-.32-.34-.24-.22.44-.14.75S74.44,31.08,74.59,30.86Zm-2.11.08a.34.34,0,0,0-.55.1.83.83,0,0,0,0,.85c.36.53.74,1,1.18,1.64C73.12,32.42,73.13,31.47,72.48,30.94Zm-1.94,17c-1.69.08-1.69.08-2.31.85.6,1.16,1.07,2.26,2.08,1.87A4.55,4.55,0,0,1,70.54,47.94ZM66.68,44a1.13,1.13,0,0,1,.14-.64c.23-.26.36-.05.38.35.07,1.44.76,1,1.29,1,.27,0,.55-.21.59-.65s-.17-.91-.56-.78-.46,0-.47-.38c-.08-1.87-.85-1.36-1.56-1.18-1.28.32-1.43.66-.89,2.37a2.85,2.85,0,0,1,.2,1.14c-.06.67.1,1.11.52,1.26a.62.62,0,0,0,.84-.42,1.56,1.56,0,0,0-.33-1.59A1.86,1.86,0,0,1,66.68,44ZM67,55.84c-.17-.41-.42-.46-.67-.17a1,1,0,0,0-.17.87c.21.38.46.36.7.13A.73.73,0,0,0,67,55.84Zm-.73-19.51a.73.73,0,0,0,.26-.91c-.13-.38-.38-.44-.64-.33a.82.82,0,0,0-.25.94C65.74,36.43,66,36.49,66.24,36.33Zm-.31,1.31c-.13,0-.21.1-.18.29a.81.81,0,0,0,.18.31c.06-.1.17-.2.17-.3S66,37.74,65.93,37.64Zm2.31-.31a.68.68,0,0,0,.16-.62c-.05-.35-.23-.67-.42-.51a3.53,3.53,0,0,0-1.18,1.37C67.37,37.54,67.81,37.63,68.24,37.33ZM69,30.42c.67-.15.33-.9.27-1.46a1.52,1.52,0,0,0,0-.21c-.37-.09-.79-.33-.85.65C68.38,30.05,68.61,30.52,69,30.42ZM67.44,54.23c.39.55.8,1.1,1.2,1.65-.13-.69.1-1.6-.46-2C68,53.71,67.59,53.48,67.44,54.23Zm3.39-10.62c.29.26.6.34.79-.2s.07-1-.3-1.08c-.63-.12-.94-.84-1.3-1.5-.19-.33-.47-.65-.93,0,.52.79,1.17,1.22,1.43,2.23A1.13,1.13,0,0,0,70.83,43.61Zm.26-3c0,.11.17.24.23.21s.2-.29.19-.55c-.08-.06-.17-.2-.24-.18S71,40.4,71.09,40.64Zm-.69-8c-.19,1-.6,2.17.49,2.86C71,34.32,70.4,33.61,70.4,32.66ZM69.38,20c.08.23.2.35.34.24a.8.8,0,0,0,0-.42c0-.22-.16-.39-.3-.2S69.39,19.85,69.38,20Zm-3.25,1.55c-.32-.05-.63-.49-1,0,.59,1.82,1.87,2.41,2.7,3.85a.72.72,0,0,1-.83.27c-.2,0-.43-.14-.53.23A1.66,1.66,0,0,0,66.57,27c.25.5.62.71.93.27.56-.78.89-.37,1.22.39.17.37.37.7.56,1a1.32,1.32,0,0,0,.39-1.55c-.25-.65-.19-.93.3-.66s.62-.24.63-.87A3.81,3.81,0,0,0,70.35,24c-.32-.71-.53-1.75-1.18-.45-.24.47-.56.28-.7-.3a7.5,7.5,0,0,1-.27-1.63,2.12,2.12,0,0,0-.94-1.92C67.09,21.58,67,21.66,66.13,21.52Zm-1.22-2.71c.56.44,1,.93,1.42.24a.81.81,0,0,0,0-.85C65.8,17.46,65.45,18.17,64.91,18.81ZM64.49,27c.07.12.24.09.33.12a.61.61,0,0,0,.16-.64.33.33,0,0,0-.37-.16A.48.48,0,0,0,64.49,27Zm-.36,3.8a.84.84,0,0,0-.08.85c.08.23.22.36.36.14a1.11,1.11,0,0,0,.1-.88C64.43,30.69,64.27,30.73,64.13,30.83ZM64,56.47c-.16.1-.19.32-.15.57s.21.37.36.24a.78.78,0,0,0,.25-.48C64.37,56.47,64.17,56.35,64,56.47ZM61.5,9.27c.5,1,.5,1,1.13,1.24C62.32,10.06,62.1,9.32,61.5,9.27Zm.71,8.13c-.11,0-.17.16-.12.34a.92.92,0,0,0,.18.32,1.17,1.17,0,0,0,.12-.36C62.38,17.58,62.27,17.5,62.21,17.4Zm-.82,4.48a2.53,2.53,0,0,0,.09.45C61.56,23.9,62.68,24,63.3,25c.19.29.45.3.68,0s.09-.72,0-1.1a6.43,6.43,0,0,1-.39-2c.09-1.09-.23-1.85-.83-1.91s-1.52-.67-2,.15S61.46,21,61.39,21.88ZM62,25.5c-.12-.31-.3-.34-.37-.28a.62.62,0,0,0-.24.69c.09.3.27.46.47.34S62.07,25.79,62,25.5ZM55.61,39.13a.36.36,0,0,0-.58.21c-.13.33,0,.57.16.85a2.76,2.76,0,0,0,2,1.67,4.59,4.59,0,0,1,2.19.91c.56-1.48.86-.29,1.25.18.1.12.37.17.43.07.83-1.38,2-.63,3.2-1.69-1.34-.78-2.69-.58-3.76-1.66-.14-.14-.41,0-.62.06A5,5,0,0,1,55.61,39.13Zm7.62,18c-.24-1-.93-.88-1.23-1.67s-.86-1.23-1.54-.94c-.29.54.16,1.16-.12,1.65s.06,1.2-.43,1.45c-.32-.12-.23-.5-.29-.79C58.9,54,58,53.05,56.24,53.22c-.11-.58-.14-1.11.42-1.35a.53.53,0,0,0,.2-.76c-.43-.49-.9-1.11-1.52-1a1.22,1.22,0,0,0-1,1.48c.1.94-.43,1.26-.78,1.81a2.78,2.78,0,0,0-.28,3.13c.78,1.21,1.79,2.2,3.11,2a1.64,1.64,0,0,1,1.64.45c.63.64,1.49.94,2.12.23A10.48,10.48,0,0,1,63.23,57.17Zm-.36,2.51c-.28-.7-.7-.87-1.23-.5-.19.13-.39.32-.23.83a1,1,0,0,0,1.27.41A.57.57,0,0,0,62.87,59.68Zm-12-10.77c0-1.8-1.23-1.78-2.17-2.22-.2,1.24-.2,1.24-1.24,2.36A1.34,1.34,0,0,0,47,50.54a1.77,1.77,0,0,0,2.6.63c.68-.56,1.3-1.38,2.14-.9s1-.35,1.27-1a.76.76,0,0,0-.26-1c-.49-.41-1-.77-1.38.21C51.3,48.77,51.19,49,50.84,48.91Zm.46-2.65c.27,0,.15-.33.09-.51s-.18-.39-.4-.3c0,.14-.11.34-.07.41S51.17,46.27,51.3,46.26Zm-.37-11c.09.29.23.49.49.4a.48.48,0,0,0,.11-.59.57.57,0,0,0-.39-.3C51,34.8,50.86,35,50.93,35.29Zm.55-9.46a3.1,3.1,0,0,0,1.44-1.67A1.74,1.74,0,0,0,51.3,24c-.45.16-.52.74-.48,1.34S51.16,26,51.48,25.83Zm.26,4a1.76,1.76,0,0,0,1.19-.54,1.8,1.8,0,0,0,.5-1.63c-.26-.3-.49,0-.73.1a5,5,0,0,1-.92.23c-.26,0-.55.08-.57.61S51.31,29.86,51.74,29.86ZM54.13,36a.36.36,0,0,0,.55.23.41.41,0,0,0,.25-.49c-.18-.26-.42-.43-.69-.34S54.05,35.72,54.13,36Zm.06-7.53c.24.81,1,1.33,1.38,1a2.83,2.83,0,0,0,.51-2.35c-.27-.78-.71-.68-1.2-.47C54.59,27.12,53.86,27.3,54.19,28.42Zm-.38,15.17c.13.49.36.72.65.51A1.3,1.3,0,0,0,55,42.56c-.14-.43-.33-1.19-.81-.83S53.76,43,53.81,43.59Zm-.58,2.61a.62.62,0,0,0-.32.76c.24.95,1.71,1.68,2,.9.39-1,.71-.73,1.19-.61.24.06.43-.19.53-.52a.73.73,0,0,0-.33-.93C55.24,45.1,54.28,46,53.23,46.2Zm3.41,3.49c.21.42.51.65.87.35a.8.8,0,0,0,.18-.85c-.19-.57-.55-.39-.87-.3A.63.63,0,0,0,56.64,49.69ZM49.5,58.53a2.05,2.05,0,0,1,2.48.33c.23.19.65-.11.56-.39-.34-1.09,0-2.3-.26-3.28-.22-.78-1-1.29-1.67-2.11A15,15,0,0,1,49,57.45C48.56,58.18,49.05,58.74,49.5,58.53Zm3.08-4.93c.35-.14.49-.47.42-1s-.55-.46-.91-.36a.49.49,0,0,0-.35.68C51.88,53.44,52.13,53.79,52.58,53.6Zm5.66-1.46c.5.68,1.36,1.18,2.17.39-.95-.74-1-.75-1.46-2.82C58.38,50.55,57.46,51.09,58.24,52.14ZM55.76,25c.1.38.29.43.49.3a1,1,0,0,0,.36-1c0-.33-.17-.59-.41-.48S55.77,24.52,55.76,25Zm-.2-3.1a.56.56,0,0,0-.19.54c0,.1.13.22.2.21s.27-.17.26-.43S55.72,21.87,55.56,21.92Zm-2.48-4.25a3.6,3.6,0,0,0-.35.34,1.07,1.07,0,0,0-.22.84c.06.35.26.44.45.32a1,1,0,0,1,1.47.1c.3.31.65,0,1-.19s.42-.51.17-1C54.85,16.5,54,17.53,53.08,17.67Zm-3-8.5c.27,2.17,1.34,2.87,2.25,4,.19.24.54.09.73-.37s0-.85-.16-1.23c-.49-1.45-1.52-1.95-1.6-4,0-.44-.46-1.07-.86-.56A2.48,2.48,0,0,0,50.05,9.17Zm-.22,9.31c.38-1.21.8.11,1.26-.37a4.5,4.5,0,0,0,0-.9c-.28-1-.93-1.56-.63-3.06.06-.32-.23-.6-.47-.49s-.3.41-.32.75C49.6,15.82,49.29,17.32,49.83,18.48Zm.11,3.81c-.28-.47-.34-1.53-1-1.05a1,1,0,0,0-.27,1c.13.63.86,1.22,1.13.92A1.05,1.05,0,0,0,49.94,22.29ZM49,19.18c-.1.68.12,1,.53.95.27-.52,0-1.13.25-1.61C49.49,18.47,49.14,18.43,49,19.18Zm-.48-2.38c.07.14.2.25.31.24s.24-.25.19-.48-.19-.41-.39-.31A.5.5,0,0,0,48.55,16.8Zm-1.5,20.14c0,.23.4.27.42.17.33-1.2,1.61-.59,1.85-2.26a5.07,5.07,0,0,0-1.39-.24c-.59.07-1.17-1.22-1.65,0C45.86,35.58,47,36,47.05,36.94Zm-1.34,7c1.3.11,2.38-1.44,3.66-1.1.3.08.5-.34.66-.74s.31-1.11.86-1.15c.47.48.32,1.56.93,1.91.23.13.46.21.65,0a.92.92,0,0,0,.2-.62,20.26,20.26,0,0,0-1-3.25c-.34-.74-1-1.45-1.76-.82a1.29,1.29,0,0,1-1.35.24c-.69-.27-1.22.42-1,1.15.57,1.81-.09,2.58-1.26,3.21A1.6,1.6,0,0,0,45.71,43.91Zm.81,3.83c-.17-.24-.39-.42-.67-.34-.54.15-.41.74-.46,1.17a.94.94,0,0,0,.35,1c.4.09.44-.31.61-.54C46.63,48.59,46.87,48.22,46.52,47.74Zm-1.17-2.92c.5-.09.32-.53.29-.88-.29-.06-.59-.11-.64.45C45,44.63,45.14,44.86,45.35,44.82Zm2.14,12.42a2.35,2.35,0,0,1-.88-1.78c0-.23-.15-.47-.41-.42a.54.54,0,0,0-.47.67c.25,1.34-.42,2.3-1.41,2.07s-2,1-3.17.32c-.4-.24-.8.37-.78.93,0,1,.43,1.8,1.51,1.79,2.19-.09,3.81,1.16,5.53,2.76,0-1.84-.36-3.33.34-4.78A1.44,1.44,0,0,0,47.49,57.24ZM52.2,63c-1-.22-1.21-1-1.53-1.87-.18-.49.29-1.16-.27-1.53-.73.26-1.54.48-2.36.72.14,1.31.6,1.88,1.75,1.93,1.32.05,1.65,1,1.15,2.52-.12.36-.5.6-.3,1.19.76.26,1.34.35,2-.79C53.37,63.62,53.52,63.28,52.2,63Zm2.58,2.71c-.26-.22-.6-.48-.87-.08s0,.91.14,1.33.29.66.44,1a4,4,0,0,0,.66-.81A1.08,1.08,0,0,0,54.78,65.72Zm2.48-4.33c.06-.53.19-1.12-.23-1.46s-.92.17-1.31.53a3.12,3.12,0,0,0-.48,1c-.14.33-.34.49-.62.38a.65.65,0,0,1-.37-.74A6.08,6.08,0,0,1,54.68,60c-.86.17-1.55,0-2.08.72.18.57.33,1.11.52,1.59s.66,1.07,1.23.89C55.44,62.88,56.63,62.79,57.26,61.39Zm.17,4.66c-.13-.31-.32-.42-.54-.29a.6.6,0,0,0-.16.66c.12.31.33.44.57.25A.54.54,0,0,0,57.43,66.05Zm2.5-2.5c-.94-2.47-1.08-2.59-2.58-2.1C58.1,62.4,59.29,62.46,59.93,63.55Zm1,3c-1.52-2.15-1.49-2.15-2.24-1.89A4.09,4.09,0,0,0,61,66.51ZM62.83,64c.23-.23.25-.61.29-1.37a3.9,3.9,0,0,0-1.61.44c-.25.22-.25.59-.26,1.34C62.19,64.32,62.61,64.25,62.83,64ZM67,68.15a3.55,3.55,0,0,1-.64-2.32c0-.51-.4-.79-.75-.57s-.18.64,0,1a1,1,0,0,1-.07,1.08c-.31.32-.63.16-.85-.23a2.75,2.75,0,0,1-.29-.85c-.16-.79-.46-.78-1-.16a3,3,0,0,0-.35.32,2,2,0,0,0-.7,1.77c.15.82.77.33,1.09.57,1.12.84,2.28-.83,3.39.2C67,69.16,67.26,68.41,67,68.15Zm1.15-4.7c.24-.67-.17-1-.44-1.35-.89-1.06-2-1.5-2.76-3-.3.88.24,1.14.22,1.74a2.62,2.62,0,0,0,2,3.05A.68.68,0,0,0,68.18,63.45ZM72.25,67h0a1,1,0,0,0-1-.13c-.21,0-.53.25-.37.55.63,1.2-.26,1.69-.32,2.71-.65-.65-1.48-.54-1.58-1.74,0-.59.62,0,.75-.59a4.38,4.38,0,0,0-1.08-2c-.4-.32-.87.07-.77.67a17.7,17.7,0,0,1,.63,4c0,.08.15.26.23.25.94-.08,1.66,1.28,2.62.92.75-.28.42-1.83,1.09-2.27.11-.07.18-.4.21-.63C72.74,68,72.75,67.38,72.25,67Zm-.1-.63c0,.19.1.38.15.57a1.46,1.46,0,0,0,.29-.44c.11-.34,0-.65-.24-.66S72.11,66.15,72.15,66.4Zm.65-4.15c-.15-2-.74-3.47-.56-5.25a1.7,1.7,0,0,0-1.68-2.07c-.74,0-1.26.65-1.87,1,.51.65,1.18.73,1.83,1a2.83,2.83,0,0,0-.83,1.07c-.42,1-.41-.89-.84-.46-.21.25-.13.59-.13.91-.06,3.27-.06,3.27,2.45,3.52a1.69,1.69,0,0,1-.54-2.39C71.09,61,72.06,61,72.8,62.25Zm1.5-22.94a.76.76,0,0,0,.19-.8c-.09-.23-1.77-1.39-1.91-1.26a1.06,1.06,0,0,0-.41,1.14C72.41,39.34,73.76,39.89,74.3,39.31Zm.39,25.59a1.1,1.1,0,0,0,.21-1.26A1.33,1.33,0,0,0,73.69,63a1.15,1.15,0,0,0,0,1.16C73.93,64.59,74.17,65.32,74.69,64.9Zm1.38,3.78a4.08,4.08,0,0,0-1.66-1.39,3.1,3.1,0,0,0-.66,1.39,1.34,1.34,0,0,0,0,.69,3.38,3.38,0,0,0,2.21.49C76.42,69.53,76.31,69.07,76.07,68.68Zm.8-9.12c-.09,0-.19,0-.25-.05-.46-.51-1.77-.34-.73-2.12a.45.45,0,0,0-.29-.63c-.53-.23-.95.21-1.22.77s.07,1,.38,1.34c.12.13.33.2.3.49-.23,2.09.92,1.36,1.45,1.5S77.05,60.22,76.87,59.56Zm.39-1c0-.09-.19-.17-.25-.12-.38.27-.25.66-.11,1.05C77.12,59.27,77.47,59.18,77.26,58.56Zm.45,6.16a.49.49,0,0,0,.07-.58c-.13-.25-.32-.37-.54-.26a.53.53,0,0,0,0,.59C77.32,64.72,77.5,64.9,77.71,64.72Zm2.56,8.08c.19-.46,0-.82-.28-.9-.58-.19-.81-.56-.61-1.49A2.25,2.25,0,0,0,79.17,69c-.32-.42-.42-1.41-1.08-1s-.45,1.13-.41,1.83c.09,1.36,1.16,3.1,2,3.32A.44.44,0,0,0,80.27,72.8ZM82.73,78c-.44-1.14-1.07-1.52-1.56-.82s-1.31.9-1,2.2a1.46,1.46,0,0,0,2.3.66C83.13,79.44,82.92,78.69,82.73,78Zm.61-7.72c-.56-.66-1-.11-1.48.52.5.34,1,1,1.51.12A1.07,1.07,0,0,0,83.34,70.28Zm.07-8.83c-.2-.64-.51-1.19-.75-1.8s-.59-.67-1-.38a2.09,2.09,0,0,0-.87,2.08c.61.23,1.34.07,1.64,1.37.13.55.58.57,1,.22S83.55,61.91,83.41,61.45Zm-.32-11.23c.1.22.27.25.41.14a.43.43,0,0,0,.15-.55c-.12-.19-.27-.25-.42-.15A.46.46,0,0,0,83.09,50.22Zm1.21,7.39c-.18-.41-.44-.23-.66,0a.55.55,0,0,0-.1.59c.15.34.34.31.53.15A.56.56,0,0,0,84.3,57.61Zm.08-10.8a2.47,2.47,0,0,0-.69-2c-.2-.25-.49-.11-.68.19a.91.91,0,0,0,0,1C83.4,46.65,83.8,47,84.38,46.81Zm.75-7.5a.53.53,0,0,0,.09-.62c-.27-.48-.6-.53-.87-.36a.58.58,0,0,0-.18.69C84.43,39.54,84.78,39.55,85.13,39.31Zm-.55,58.88c-.47-.67-1.15-.58-1.78-1.77,0,1.37-.34,2.46.24,2.73C83.45,99.34,84.34,99.53,84.58,98.19ZM86,95s-.17,0-.29,0a2.45,2.45,0,0,0,0,.66c.07.23.26.34.34,0A1.94,1.94,0,0,0,86,95Zm.2-5.81c-.33-.51-.47,0-.71.34s-.65.43-1,.66a1.1,1.1,0,0,0-.46,1c.07.63.46.49.76.58.73.22,1-.59,1.31-1.34C86.18,90.07,86.45,89.64,86.16,89.2Zm3,5.74c-.12,0-.24.12-.36.2a1.32,1.32,0,0,0,.31.4c.12.07.37,0,.39,0C89.55,95.07,89.31,95,89.11,94.94Zm1.14-2.34a3,3,0,0,0-.79,0,9.55,9.55,0,0,0-3.14,1.11c.66,1.47,1.44,1.84,2.4,1.35a.05.05,0,0,1,0,0c.89-1.38,1.18-1.29,2.2.64.26-.3,0-.77.15-1.1C91.66,92.83,91.54,92.54,90.25,92.6Zm2.91,8.6c-.19-.52-1.06-.8-1.39-.46a.74.74,0,0,0,0,.83c.35.54.77.91,1.26.64C93.3,102.05,93.3,101.59,93.16,101.2Zm2-7.62c-.8-.63-1.41-.9-2,.37A2,2,0,0,0,95.12,93.58ZM96,92.22A40.4,40.4,0,0,1,92.6,87a.78.78,0,0,0-.44-.27c-.67-.27-1.07.27-.89,1.28a20.12,20.12,0,0,0,.65,2.73c.27.84.64,1.4,1.39.94.48-.3,1-.19,1.44.61C94.93,92.6,95.2,92.67,96,92.22ZM100.61,95c-.14-.36-.36-.3-.56-.24s-.28.27-.2.53.28.6.49.51S100.6,95.37,100.61,95Zm5.89-2.81a.37.37,0,0,0,.44-.11,2.06,2.06,0,0,0,.24-.85c.09-1.49-.51-2.4-1.64-2s-1.79-.25-2.48-1.39c-.26-.42-.44-.93-.69-1.3-.42-.65-.87-1.45-1.64-.73-.61.57-1.28.12-1.69-.68a7.13,7.13,0,0,0-1.36-1.65h0c0,.06.1.11.11.18.4,2.18.3,2.4-1.08,2.31-.28,0-.45.08-.61.52-.59,1.57-.51,2.34.47,3.52.21.26.45.54.71.25s0-.59-.06-.87-.13-.64.12-.78.37.17.46.49c.52,1.73.61,1.77,1.7,1.27.3-.13.44-.76.8-.54.66.82.48,2.6,1.5,3,.31-.51-.07-1.36.41-1.71.88,1.1.88,1.1,1.43-.35.42.37,0,1.21.46,1.67C105,93.36,105.69,91.92,106.5,92.23Zm1.29,2.3c-.36-.22-.66-.87-1.15-.43,0,.89.46,1.16.8,1.56.16.18.42.08.55-.19A.69.69,0,0,0,107.79,94.53Zm.37-47.7a.34.34,0,0,0-.52-.21.76.76,0,0,0,0,.82c.09.19.24.32.39.17A.71.71,0,0,0,108.16,46.83Zm.63,1c.43.16.75.28,1.11-.39C109.44,47.15,109.09,47,108.79,47.8Zm.85,48.38c-.1-.23-.25-.23-.39-.09a.71.71,0,0,0,0,.8c.11.16.23.33.37.12A.82.82,0,0,0,109.64,96.18Zm1.26-5.4c.2.71.6,1.38,1.11.92s1.14-.53,1-1.82c-.1-1-.24-1.76-1-1.9a2.48,2.48,0,0,0-1.24-.07c-.31.09-.67-.11-.57-.8.24-1.81-.45-1.2-1-1.16,0,1,1,1.9-.27,3C110,89.31,110.59,89.63,110.9,90.78Zm2.08,3c-.66-.55-1.1,0-1.54.32a.84.84,0,0,0-.11.86c.11.34.31.52.51.29C112.2,94.86,112.72,94.77,113,93.81Zm.42,3a2,2,0,0,0-1.3-.37C112.73,98,112.73,98,113.4,96.83Zm.92,1.7c-.08-.13-.27-.1-.41-.15,0,.19-.14.34-.12.45,0,.31.22.33.37.22A.39.39,0,0,0,114.32,98.53ZM116.24,95c-.46-2.09-.46-2.09-1.69-2.15A3.58,3.58,0,0,0,116.24,95Zm1.45-9c.37-.88,1.12-.6,1.66-1.28-.34-.74-.74-.74-1.06-1a3.71,3.71,0,0,1-.88-1c-.75-1.24-.76-1.22-1.85-.21a2.14,2.14,0,0,0,1,1.48c.48.44.37,1.29.62,1.88C117.27,86.26,117.57,86.33,117.69,86.07Zm1.86,18.55c-.3-1.29-1.42-1.81-1.35-3.49a1.78,1.78,0,0,0-.16,1.94A2.89,2.89,0,0,0,119.55,104.62Zm.93-8.25c0-1.06-.38-1.6-.94-1.86-.2-.09-.43-.18-.57.14a1,1,0,0,0,.06.9C119.4,96.24,119.85,96.54,120.48,96.37Zm3,6.36c-.45-1.84-1.7-3-2-5a.2.2,0,0,0-.13-.14c-.14,0-.31-.12-.43,0a.46.46,0,0,0-.05.6c.1.19.25.31.35.5.83,1.63.36,3.44-1,3.94-.78.3-.49.91-.07,1.46.78,0,1.73.59,1.94-1.35.05-.44.33-.19.51,0S123.06,103.39,123.48,102.73Zm.27-6.62c-.21-.19-.43-.46-.68-.2a.62.62,0,0,0,0,.63c.21.25.47.34.71.1A.36.36,0,0,0,123.75,96.11Zm1.3-7.76a.94.94,0,0,0,.21-1.2c-.19-.36-.45-.41-.67-.07s-.31.55-.62.58c-1.08.09-1.08.13-.85,2.1A22.73,22.73,0,0,0,125.05,88.35Zm.19,5.69a.59.59,0,0,0,.08-.42c-.23-.69-.58-.85-1.18-.5C124.51,93.82,124.75,94.41,125.24,94Zm-.42,3.16c.11.52.4.92.69.78s.31-.92.23-1.43-.42-.63-.82-.58A1.46,1.46,0,0,0,124.82,97.2ZM127,103c-.14-1.1-.82-1.09-1.3-1.5-.3-.26-.73-.49-.84.36-.08.59-.22,1.3.31,1.67s.86.58,1.3.84c.24.15.53.23.72-.09C127.52,103.78,127.2,103.41,127,103Zm2.2-3.29c-.18-.73-.35-1.39-.94-1.25a.72.72,0,0,0-.22.53C128.28,99.84,128.7,99.89,129.24,99.7Zm1.67,2.8c-.35-.81-1-.37-1.41-.25s-.28.89-.21,1.49c.37.6.86.67,1.26.39A1.46,1.46,0,0,0,130.91,102.5Zm1.14-5.68a.35.35,0,0,0-.57,0,.82.82,0,0,0-.17.81c.21.46.18,1.12.66,1.54.29-.51,0-1.15.27-1.6A.68.68,0,0,0,132.05,96.82Zm.2-9c-.09-.2-.2-.33-.31-.21a.67.67,0,0,0-.06.65c.09.23.23.32.36.16A.63.63,0,0,0,132.25,87.79Zm.3-2.54a.54.54,0,0,0,.13-.6c-.12-.39-.34-.66-.6-.54s-.23.45-.16.78S132.29,85.41,132.55,85.25Zm.31,18.81c-.12-.26-.24-.37-.38-.18a.58.58,0,0,0,0,.6c.1.22.27.25.39.12A.55.55,0,0,0,132.86,104.06Zm2.23-7.76c-.24-1.32-1.06-1-1.65-1.25a3,3,0,0,0,.14,1.73c.12.4.24.79-.15.89s-.76.4-.45,1.08.78.82,1.15.07S135.3,97.51,135.09,96.3Zm.18-6.29a.38.38,0,0,0-.58-.1c0,.15-.06.37,0,.42a.41.41,0,0,0,.59.06C135.38,90.32,135.38,90.15,135.27,90Zm4.2,4.3c.05.25.2.38.37.34a.46.46,0,0,0,.24-.52c0-.31-.22-.23-.36-.25S139.41,94,139.47,94.31Zm-1.63-4.21c.18.73.32,1.49,1,1.2a.67.67,0,0,0,.24-.5c-.08-1.07-.63-.78-1-.88C138,89.91,138,90,137.84,90.1Zm-1.6,7.05c.15.45.4.54.64.27a.71.71,0,0,0,.2-1c-.2-.36-.46-.3-.71-.15A.74.74,0,0,0,136.24,97.15Zm.77,5.65c-.26-.27-.48-.91-.87-.43a1,1,0,0,0,.07.63c.21.38.48.64.8.4C137.16,103.29,137.12,103,137,102.8Zm.43-2c-.06-.4-.25-.47-.47-.41a.46.46,0,0,0-.19.53c.07.36.24.54.47.43S137.48,101.1,137.44,100.84ZM138,91.5c-.11-.22-.26-.22-.39,0s-.15.43,0,.59a.26.26,0,0,0,.29,0A.42.42,0,0,0,138,91.5Zm.5,3.59c-.06-.28-.22-.27-.37-.23s-.14.28-.12.38c.06.26.22.33.37.22A.61.61,0,0,0,138.49,95.09Zm1.1,7.49c0-.08-.15-.11-.25-.18a4,4,0,0,1-.81,1.68c.52.09.76.78,1,.46C140,104,139.75,103.25,139.59,102.58Zm.73-2.78a9.6,9.6,0,0,1,.56-1.07l-1.09-.34a.83.83,0,0,0-.15,0c-.3,0-.64-.16-.78.41a1.72,1.72,0,0,0,.23,1.11C139.56,101,139.87,100.93,140.32,99.8Zm1.47,5.26a1.42,1.42,0,0,0-.93-1.44,15.78,15.78,0,0,0-.29,2.54C141.25,106.08,141.74,105.81,141.79,105.06Zm.47-6c.26.39.57.29.77-.16a1.19,1.19,0,0,0-.13-1.2,2.67,2.67,0,0,0-.54.36A.81.81,0,0,0,142.26,99.09Zm.07-3.62c.12.33.29.4.48.23a.5.5,0,0,0,.11-.58c-.12-.32-.31-.4-.5-.26A.62.62,0,0,0,142.33,95.47Zm.74,8.1a5.63,5.63,0,0,0,.08,1.07c.26-.16.57-.27.31-.92C143.37,103.49,143.07,103.47,143.07,103.57Zm-.33-1.35a.51.51,0,0,0,0-.59c-.19-.27-.41-.41-.63-.23a.55.55,0,0,0,0,.62C142.28,102.31,142.5,102.54,142.74,102.22Zm.41,2.49c-.09.5-.66.65-.43,1.3.16.44.57.53.8.22C144.24,105.25,143.53,105.06,143.15,104.71Zm.7-7.22c0-.53-.29-.58-.56-.58s-.36.41-.38.8l.4.24C143.6,98.1,143.85,98,143.85,97.49Zm.59-7.73c.21-.93-.79-.55-1.15-1.09-.18-.28-.54-.54-.83-.13a1.28,1.28,0,0,0-.1.43c0,.11.09.34.14.33a1,1,0,0,1,.73.06C143.64,89.63,144.17,90.9,144.44,89.76Zm.54,12.66s-.1,0-.23,0c0,.66-.23,1.37.33,1.82.11.09.4,0,.42-.11A1.51,1.51,0,0,0,145,102.42Zm.79-5.56a.79.79,0,0,0-1.23-.43,1,1,0,0,0-.16,1c.33.61.77.19,1.15.13C145.74,97.57,145.85,97.21,145.77,96.86Zm2-4.54c.33-.18.29-.82.21-1.24s-.36-.54-.62-.25-.51.43-.37.87S147.45,92.48,147.74,92.32Zm.43,11.19a.38.38,0,0,0-.54-.24.46.46,0,0,0-.07.59c.13.28.3.47.52.25A.51.51,0,0,0,148.17,103.51ZM149.4,97c-.18-.73-.51-.67-.88-.54s-.7.15-1.14.25a2.28,2.28,0,0,0,.9,1.79c.3.36.63.72,1,.28A2.12,2.12,0,0,0,149.4,97Zm1.39,5.49a1,1,0,0,0-.35-.27.54.54,0,0,0-.07.62c.08.15.27.28.37.22S150.9,102.72,150.79,102.53Zm.22-8.66c-.2-.35-.44-.31-.78,0-.1.09-.12.34,0,.67s.43.78.73.34A1,1,0,0,0,151,93.87Zm.82,11.95c-.08-.24-.25-.32-.39-.19s-.11.38,0,.57.29.31.4.07A.85.85,0,0,0,151.83,105.82Zm1.65-3.3c-.1-.22-.24-.27-.37-.22a.44.44,0,0,0-.12.59c.09.2.24.3.39.2A.45.45,0,0,0,153.48,102.52Zm2.89,2.88c-.19-.28-.51-.56-.35-1,.3-.72.23-1-.29-1.41s-.41-.86.19-1.15.72-1.33.38-2.53c-.11-.4-.3-.71-.59-.52s-.13.46-.1.79c.13,1.3-.09,1.78-.68,1.53-.2-.09-.34-.71-.61-.22a2,2,0,0,0-.2,1.33c.11.67.61,1,.44,2a2.53,2.53,0,0,0,1,2.69c.28.1.63.25.84-.22A1.33,1.33,0,0,0,156.37,105.4Zm3.88-18c.34,1,.56,1.58,1.25,1.39C161.26,87.83,160.92,87.51,160.25,87.37Zm.52,14.82a1.09,1.09,0,0,0-.29-.33c-.29.06-.24.32-.18.53s.17.4.33.33A.4.4,0,0,0,160.77,102.19Zm-2.18-6c.83.48,1.3,1.61,1.92,2.63a2.31,2.31,0,0,1,.15-2.6,3.29,3.29,0,0,1-1.74-1.06c-.18-.19-.43-.23-.56.06A.78.78,0,0,0,158.59,96.14Zm-.12,5.76c.1.2.27.26.39.1a1,1,0,0,0,.14-1c-.13-.18-.27-.28-.4-.09A.89.89,0,0,0,158.47,101.9Zm0,2.67c.09-.47.54-.44.47-1.15C158.52,103.46,158.37,103.84,158.48,104.57Zm2.17,2c-.53-.14-1-1.13-1.81-.29C159.52,106.79,160,107.4,160.65,106.54Zm2.24-1.13c-.11-.75,0-1.71-.66-2.09s-.74.4-1,.78-.64.18-.79,1.44c.86-.77,1.2.39,1.74.76S163,106.19,162.89,105.41Zm.23-5.77c-.06-.16-.23-.21-.31-.28-.25.09-.24.35-.18.54s.22.4.31.39S163.23,99.94,163.12,99.64Zm2.49,2.94a3.31,3.31,0,0,0,.18-.56l-2.28-1.35a.75.75,0,0,0,0,.71C164.09,102.27,164.88,102.28,165.61,102.58Zm.63,1.94c-.19-.29-.43-.66-.66-.36a5.56,5.56,0,0,0-1,1.65,2.59,2.59,0,0,0,.43,1.7,4.17,4.17,0,0,1,.5-1c.26-.23.55-.32.75-.72A1.14,1.14,0,0,0,166.24,104.52Zm3.64-.91c.05-.41-.38-.62-.87-.68.2.32.26.45.34.55S169.78,104.29,169.88,103.61Zm8.86,2c-.2-.24-.43-.4-.66-.18a.43.43,0,0,0,0,.57c.19.3.41.46.65.21A.49.49,0,0,0,178.74,105.66Zm13.71-13.42c-.47-.13-.95-.27-1.44-.37-.06,0-.16.17-.19.3a1.16,1.16,0,0,0,0,.44,3.45,3.45,0,0,0,1,.52C192.12,93.19,192.43,93.08,192.45,92.24Zm.54-4.17c-.08.05-.19.08-.22.17a.85.85,0,0,0,0,.45c0,.2.13.21.24,0Zm3.6,19c-.13-.24-.26-.18-.36,0-.19.46-.18.83.18,1.07A.86.86,0,0,0,196.59,107Zm5.47-1.36c-.19-.09-.33.24-.31.58a2.86,2.86,0,0,0,.13.58,1.46,1.46,0,0,0,.25-.42C202.2,106.18,202.33,105.8,202.06,105.68Zm6.87-15.16a.41.41,0,0,0,0-.16c-.11-.39-.31-.66-.57-.52-.1.06-.1.19-.07.33A6.25,6.25,0,0,0,208.93,90.52Zm8.14,14.39c-.1-.27-.25-.27-.36-.11a.66.66,0,0,0,0,.77c.1.19.25.34.36.16A1,1,0,0,0,217.07,104.91Zm16.73.67c-.08-.37-.27-.47-.48-.34a.69.69,0,0,0-.17.59c.09.37.28.48.49.32A.56.56,0,0,0,233.8,105.58Zm5.76-1.06c-.06-.07-.2,0-.27.06-.29.35,0,.65.1,1,.05.12.08.27.12.4a1.8,1.8,0,0,0,.1-.4C239.64,105.2,239.86,104.83,239.56,104.52Zm1.75-3a3.53,3.53,0,0,0-1.17-1.36C240.7,101.57,240.7,101.57,241.31,101.54Zm3.37,3.21c0-1-.52-1-1.17-1,.26.86.3,1.57.82,1.64C244.55,105.39,244.69,105.07,244.68,104.75Zm1.2-.56c-.1-.19-.24-.22-.26-.2a.59.59,0,0,0-.18.63.62.62,0,0,1,.27.23.42.42,0,0,0,.12-.08A.52.52,0,0,0,245.88,104.19Zm94.94-8.43a4.34,4.34,0,0,0-.41-.64c-.5.22-1,.48-1.54.76A1.56,1.56,0,0,0,340.82,95.76Zm9.06.09c-.25-1.06-1.55-1.2-2.66-1.48,0,0-.08,0-.11,0l-.36-.16-.12,0a3.8,3.8,0,0,0-.51-.16,1.87,1.87,0,0,0-1.22.92.91.91,0,0,1-.61.15c-.16.57-.19,1.15.86,1.46s2.17.63,3.27.91a2.22,2.22,0,0,0,1.86-.14C351.06,96.75,350.26,96.33,349.88,95.85Zm9.94-.75c-.84-.92-2.45-.38-3.59-.22s-.78,1-.62,1.73a3.58,3.58,0,0,0,3.2.4C359.8,96.69,360.42,95.76,359.82,95.1Zm4.9,1.71a.71.71,0,0,0-1-.2c-.32.2-.35.47-.12.7a.89.89,0,0,0,1,.12C365,97.26,364.86,97,364.72,96.81Zm10.72-1.67c-.35-.15-.66-.43-1-.57v.14c-.07,0-.12.05-.16,0a4.64,4.64,0,0,1-.42-.25,1.69,1.69,0,0,0-.6.2c-.14.08,0,.56.15.72a2,2,0,0,0,2,.44C375.79,95.71,375.71,95.4,375.44,95.14Zm1.24-2.28c-.1-.39-.46-.49-.91-.47-.24.1-.48.18-.71.25A.35.35,0,0,0,375,93a.93.93,0,0,0,1.18.48C376.57,93.41,376.76,93.16,376.68,92.86Zm5.4,1.91c-.05-.1-.39-.13-.63-.2-.24.75-1.09,1.18-2.19,2,1.3.08,1.88.86,2.61.49C383.08,96.41,382.42,95.54,382.08,94.77ZM391,97c.68-.2,1.49-.35.87-1.09-.22-.26-1-.27-1-.15A3.55,3.55,0,0,0,391,97Zm-5.78-1.07c-.75.85-.45,1.81-.92,3,.29,0,.56,0,.82-.09a1.13,1.13,0,0,1,.23-.56c.17-.21.36-.11.47.19a1.09,1.09,0,0,1,.07.24c.88-.2,1.48-.55,1.61-1.11C387.76,96.57,386.46,96.2,385.26,95.91Zm4.92-1.72c.32-.19.3-.48,0-.67a1.74,1.74,0,0,0-1.61-.24c-.38.28-.28.54,0,.72A1.37,1.37,0,0,0,390.18,94.19Zm.84,2.87c-.25.58-1.71.78-1.17,1.52a1.67,1.67,0,0,0,2,.21C393.78,97.63,392,97.45,391,97.06Zm4.89-2.74a2.36,2.36,0,0,0-.59,0c-.14.76-.71,1.6.7,2.09a1.61,1.61,0,0,0,1.09-.15C397.56,95.4,397.27,94.67,395.91,94.32Zm8.08,1.1a1.5,1.5,0,0,0-1.37-.25c-.44.19-.47.44-.23.69a1.09,1.09,0,0,0,1.31.26C404.05,96,404.28,95.71,404,95.42Zm6.85-1.24a3.55,3.55,0,0,0-.88-.31c-.46.24-.47.55-.24.73a1.39,1.39,0,0,0,.95.24A.36.36,0,0,0,410.84,94.18ZM413.23,98a.83.83,0,0,0-1-.22c-.41.17-.32.45-.16.66a.78.78,0,0,0,1,.08A.45.45,0,0,0,413.23,98Zm4.56-3.87a.92.92,0,0,0-.91-.24c-.52.17-.63.41-.38.68a1,1,0,0,0,1,.22C417.92,94.61,418,94.36,417.79,94.08Zm6.38-.81c1.45-.47,2-1.56,1.22-2.93a1.13,1.13,0,0,0-1.25-.62,2.15,2.15,0,0,1-.51.15c-.26.2-.08.49,0,.79.22,1.51-.39,2.07-1.9,1.79a1.4,1.4,0,0,1-.49-.24.54.54,0,0,1-.84-.11v0a1.79,1.79,0,0,0-.24.15,1.4,1.4,0,0,0-.64,1.54c.22.77,1.49,1.2.95,2.28-.67,1.34.64,2.81,2.39,3.08a2.59,2.59,0,0,0,2.21-.28c.53-.49.65-1,0-1.51-.47-.32-1.26-.64-.8-1.1.84-.85.67-1.18-.64-1.62S422.6,93.62,424.17,93.27Zm11.28.47a.71.71,0,0,0,.83.36c.39-.08.66-.34.41-.61a2.39,2.39,0,0,0-.72-.38C435.22,93.2,435.33,93.49,435.45,93.74Zm-4.67-.52a.84.84,0,0,0,1,.1c.51-.3.8-.69.46-1.14a.89.89,0,0,0-1-.1C430.71,92.39,430.29,92.75,430.78,93.22ZM431.87,95c-1.11.07-1.55.51-1.33,1.35C430.81,95.77,432,95.78,431.87,95ZM436,98.53c-1.34-.15-2.53-1.29-4.64-.29C433,98.84,434.21,99.54,436,98.53Zm5.9-1.37c-.21-.87.12-2-1.51-2.4-1.3-.34-2,.48-2.71.93-.59.36-1.65.23-2.19,1.69,2.31-.92,3.07.42,4.45.82C441.09,98.56,442.07,98.06,441.86,97.16ZM443,90.47c-.14-.18-.57-.24-.77-.31-.65.11-.67.41-.51.63a1.11,1.11,0,0,0,.76.44C443.09,91.18,443.29,90.81,443,90.47Zm6.15,3.33c.09,0,.35-.43.53-.66l-5.76-1.49c-.36.33-.45.63-.16.83C445.27,93.48,447.32,93.48,449.17,93.8ZM450.61,96c-.47-.33-1-.75-1.68-.4a10.05,10.05,0,0,0-2.75,1.93c-.43.5.19,1.22.95,2,.57-.51.88-1,1.39-1.19a6.8,6.8,0,0,0,2-.85C451.12,97,451.31,96.51,450.61,96Zm7.32-1.92a8.91,8.91,0,0,0,.83.62c.42.23,1,.93,1.34.14C460.29,94.4,459.19,94.16,457.93,94.11ZM482.87,97a1.84,1.84,0,0,0-1.69-.2c-.37.15-.51.4-.17.65a1.56,1.56,0,0,0,1.67.25C483,97.57,483.18,97.32,482.87,97Zm46.24,1.45a.64.64,0,0,0-.93.06c-.56.54-.59,1,.33,1.24C529.2,99.46,529.75,99.09,529.11,98.48Zm14.45-1.61a.73.73,0,0,0-.9.68,1.78,1.78,0,0,0,.27.67,2.78,2.78,0,0,0,.7-.49C543.85,97.45,544.24,97,543.56,96.87Zm19.27-18s-.15-.08-.23-.13l-.29.36.25.13A2.81,2.81,0,0,0,562.83,78.85Zm20,17.28a.71.71,0,0,0-.94-.13c-.52.28-.33.61,0,.9a.78.78,0,0,0,.93.18C583.33,96.8,583.08,96.45,582.88,96.13Zm43.72,1.06c-.17-.43-.63-.55-1.22-.4-.34.16-.63.38-.51.67.17.44.64.57,1.22.39C626.46,97.73,626.72,97.49,626.6,97.19Zm15.27-1a1.07,1.07,0,0,0-.72.06c-.83.4-.23.75.1,1.12a1.61,1.61,0,0,1,.26.46,1.67,1.67,0,0,0,.34-.45C642,97,642.59,96.54,641.87,96.17Zm5-3.37c-.62-.79-1.67-1.09-2.88-1.62C645.29,92.81,645.29,92.81,646.9,92.8Zm8.35,3.82c0-1.2-1.22-1.15-2.9-1.24.53,1,.53,1.83,1.88,1.93A.89.89,0,0,0,655.25,96.62Zm3.24-.61a.9.9,0,0,0-.65-.24c-.7.29-.73.56-.52.8a.8.8,0,0,0,.94.1C658.61,96.52,658.74,96.26,658.49,96Zm36.69-10.29c-.17-.24-.4-.54-.81-.42s-.49.42-.25.68a1,1,0,0,0,.61.27C695.27,86.27,695.31,86,695.18,85.72Zm40.65-15c-.24-.34-.43-.72-.69-1l-.66,0c-.37,0-.78-.12-1.06,0A3.16,3.16,0,0,0,735.83,70.71Zm49.24,13.77a.91.91,0,0,0-.93-.3c-.23.14-.26.3,0,.46s.62.46.87.43C785.52,85,785.24,84.68,785.07,84.48Zm2.46-7.55a1.63,1.63,0,0,0-.8-1.14,1.68,1.68,0,0,1-2,.53,2.75,2.75,0,0,0,2.28.76A2.8,2.8,0,0,0,787.53,76.93Zm5.6,9.15a2.1,2.1,0,0,0-2-.52c-.37.15-.69.4-.42.65a2,2,0,0,0,2,.52C793.08,86.62,793.38,86.34,793.13,86.08Zm50,1.61a.61.61,0,0,0-.35,0c-.63.21-.43.57-.24.9s.27.39.41.59a3.62,3.62,0,0,0,.55-.56C843.73,88.24,843.62,87.91,843.1,87.69Zm5.66-1.19a.89.89,0,0,0-1-.21c-.5.12-.87.33-.75.77a1.08,1.08,0,0,0,1.26.33C848.83,87.22,849.05,86.89,848.76,86.5Zm17.18-23.42,0,0a1.37,1.37,0,0,0-1.31-.42c-.47.12-.59.39-.54.69A4,4,0,0,0,865.94,63.08Zm.55,1.49a2.34,2.34,0,0,1-.59,0,2.62,2.62,0,0,0-1.17,0,3.6,3.6,0,0,0,1.32.91A2.54,2.54,0,0,0,866.49,64.57Zm6,14a1.5,1.5,0,0,0-1.3-.45c-.55.07-.51.35-.36.61a1.16,1.16,0,0,0,1.24.46C872.54,79.15,872.7,78.9,872.5,78.6Zm56.14-3.19c-.2-.27-.55-.43-.82-.11s-.09.5-.11.67c.25.28.47.31.69.16S928.84,75.69,928.64,75.41Zm22.92,9.16c-.07-.29-.31-.49-.79-.44s-.75.48-.58.89a.68.68,0,0,0,.81.45A.64.64,0,0,0,951.56,84.57Zm9.21,4a1.68,1.68,0,0,0-1.64-.3c-.44.25-.6.49-.36.78a1.63,1.63,0,0,0,1.69.39C961.08,89.26,961.17,88.84,960.77,88.54Zm3-.75a1.62,1.62,0,0,0-1.61-.59c-.44,0-.68.3-.38.57s.77,1,1.7.69C963.73,88.37,963.72,88,963.8,87.79Zm5.29-.68a1.18,1.18,0,0,0-1.29-.36c-.57.16-.65.53-.35.88a1.34,1.34,0,0,0,1.29.41C969.26,87.81,969.34,87.45,969.09,87.11Zm11.24-1.18c0-.71-.73-.91-1.49-1-.38-.06-.88,0-.92.28s.31.52.6.62A2.22,2.22,0,0,0,980.33,85.93Zm19.54,1.74a4.79,4.79,0,0,0-3.54-1,12.5,12.5,0,0,0,1.3,2.25,1.67,1.67,0,0,0,2.08.21C1000.38,88.77,1000.53,88.17,999.87,87.67Zm1.4-2.91c-.36-.35-.92-.92-1.41-.42-.23.24.61.89,1.48.94C1001.32,85.1,1001.39,84.88,1001.27,84.76Zm9-3.41a5.57,5.57,0,0,0-1.53-.11c-.73.25-1.93.17-1.92,1a1.24,1.24,0,0,0,.75.89c1.22.47,1.35-.53,2-.87C1009.82,82.16,1009.92,81.87,1010.3,81.35Zm10.2,7.41a.88.88,0,0,0-1-.21c-.41.15-.51.39-.27.66a.94.94,0,0,0,1,.22C1020.69,89.3,1020.73,89,1020.5,88.76Zm5.28-9c-.16-.22-.44-.56-.69-.58-1.87-.12-3.72-.8-6.44-.12,2.53,1,4.68.88,6.72,1.08C1025.5,80.19,1025.83,79.87,1025.78,79.8Zm1.67,9a.85.85,0,0,0-.93-.33c-.68.14-.49.53-.4.86a.82.82,0,0,0,.92.36C1027.63,89.51,1027.65,89.13,1027.45,88.77Zm.34-41.29c.69.26,1.39.68,2.18.27a.42.42,0,0,0,.15-.49,2,2,0,0,0-2-.67l-1.75.22C1027.13,47.17,1027.44,47.35,1027.79,47.48Zm3.43,40.83a4.6,4.6,0,0,0-.91-.24c.2,1.05.11,1.89,1.52,2.26a1,1,0,0,0,.67-.13C1032.86,89.33,1031.73,88.92,1031.22,88.31Zm1.46-10c-.07-.25-.35-.68-.51-.68a15.18,15.18,0,0,0-3,.21c-1,.22-1.2.86-.81,1.7,1.23-.12,2.47-.21,3.69-.37C1032.61,79,1032.78,78.65,1032.68,78.26Zm1.76-36.51a.54.54,0,0,0-.74-.43c-.16,0-.22.28-.32.43a2.36,2.36,0,0,0,.58.32C1034.27,42.13,1034.49,42,1034.44,41.75Zm43.82,22.78c1.24-1,1.24-1,.14-1.91C1078.35,63.33,1078.3,63.93,1078.26,64.53Zm-6.11-44.07a2.23,2.23,0,0,0,1.95.09c.35-.15.51-.45.29-.69a1.77,1.77,0,0,0-2-.47C1071.92,19.57,1071.84,19.93,1072.15,20.46Zm-3.72-3.22a3.69,3.69,0,0,0,1,.2c.46-.24.62-.54.27-.74a2,2,0,0,0-1.11-.06C1068.15,16.72,1068,17,1068.43,17.24Zm-1.82,34.56c0,.25.27.52.31.59.63,1,4.79,2.72,5.89,2.57.33-.05.89-.31.86-.42-.22-.88.91-2.17-1.44-2.46-1-.13-1.66-.43-1.87-1.24a2.24,2.24,0,0,0-2.92-1.74C1065.74,49.52,1066.64,50.84,1066.61,51.8Zm.82,9.86c-.32,0-.51.11-.49.34a.67.67,0,0,0,.64.61c.44.06.73-.11.65-.44A.83.83,0,0,0,1067.43,61.66Zm-3.16-8.5c-1.68.11-2.68,1-2,2.33,1.32-.28,2.43.3,3.64.53.65.13,1.53-.25,1.09-.75C1066.34,54.45,1066,53,1064.27,53.16Zm1.17,12.58a1.06,1.06,0,0,0-.3-.16c0,.07-.05.15,0,.21a.4.4,0,0,0,.23.23C1065.65,66.09,1065.7,66,1065.44,65.74Zm-8.86-10.91c-.72-.13-1.38,0-1.33.56s.65,1.1,1.63,1.17A1.75,1.75,0,0,1,1056.58,54.83Zm-2.65,2.79c-.75-.14-1,.45-.92,1a1.06,1.06,0,0,0,1.21.93,33.36,33.36,0,0,0,4.16-.63,11.58,11.58,0,0,1,5.31-.29c1-1.51-.32-2.28-1.48-3.07h.06c-1-.77-2-1.81-3.76-.76a4.55,4.55,0,0,1-1.78.1c1,.62,2.41.82,3.12,1.73-1,.63-2-.2-2.88.08C1056.41,57.62,1055.46,57.89,1053.93,57.62ZM1061.78,37l.71.09c0-.16,0-.38-.06-.46a1.89,1.89,0,0,0-.67-.08Zm.24-7.28c.55.55,0,1.32.89,1.8,1.27-.09,1.58-.94,1.92-1.5.47-.77-.63-1.33-1.46-1.8a1.12,1.12,0,0,0-1.35,0C1061.39,28.73,1061.54,29.27,1062,29.75Zm-4.19.43c.48.3,1.06.68,1.69.33s.25-.68-.14-1a1.68,1.68,0,0,0-1.66-.34C1057.32,29.57,1057.4,29.92,1057.83,30.18Zm.4,6.14a.4.4,0,0,0-.59,0,.21.21,0,0,0,0,.23.38.38,0,0,0,.58,0C1058.32,36.5,1058.25,36.4,1058.23,36.32Zm-5.77,15a8.67,8.67,0,0,0,5.06-.21c.9-.26,1.94-.5,1.38-1.33a1.8,1.8,0,0,0-2.59-.39C1055.43,50.31,1053.78,50.25,1052.46,51.31ZM1051.21,72c1.76-.23,3.51.76,5.25.11,2.47-.92,2.44-1,4.18.84-.81.63-2.31.19-3.42,1a10,10,0,0,0,5.6-.12c.51-.2,1.47-.58.77-1-1.26-.75-.36-1.83-1.25-2.57a3.18,3.18,0,0,0-3.22-.93A29.05,29.05,0,0,0,1051.21,72Zm-3.67-6.3a.77.77,0,0,0,.88.43c.3,0,.43-.25.24-.42a5.84,5.84,0,0,0-.88-.53C1047.67,65.44,1047.49,65.61,1047.54,65.74Zm-3.68-26.41c.46.84,1.26.31,1.94.28.5,0,1,0,1.44-.49a1.83,1.83,0,0,0-1.37-.7c-.75-.11-1.58-.32-2,.38A.56.56,0,0,0,1043.86,39.33Zm-.44,13a1.74,1.74,0,0,0,.62.2c0-.14.21-.33.14-.41a1.7,1.7,0,0,0-.59-.2C1043.53,52,1043.35,52.24,1043.42,52.31ZM1042,73.62c.51.43.54,1.1,1.79,1.45,1.06-.88,1.28-2.51,3.72-1.84a.76.76,0,0,0,1-.64,1.19,1.19,0,0,0-1-1.12,13.29,13.29,0,0,0-4.62-.24C1040.44,71.67,1040.24,72.12,1042,73.62Zm-1.08,4.6.16.09c.7-.46.35-.9-.22-1.33-.22-.16-.52-.15-.61,0C1040,77.53,1040.5,77.87,1040.92,78.22Zm-.2,3.33a1.29,1.29,0,0,0-1.36-.22c-.31.19-.51.4-.25.7a1.31,1.31,0,0,0,1.31.36C1041,82.25,1041.08,81.89,1040.72,81.55Zm4.2,2.09c-.59-.31-1.21-.84-1.93-.42s-.39,1.15.24,1.44C1045.29,85.62,1044.6,84.2,1044.92,83.64Zm2.58.63c-.31-1.64-.3-1.66-2.44-.64a7.44,7.44,0,0,1,1.84,2.88C1048.36,86,1047.66,85.11,1047.5,84.27Zm17.17-2.8c-.35-1.75-2.48-4-4.3-3.89-2.77.23-5.87-.63-8.31.83-.17.09-.16.34-.2.53-.38,1.53-1.54.81-2.56.37-1.8-.8.09-1.56.11-2.51l-5.55.31c-.59,0-.79,0-.65.58.38,1.63-1,.88-2,.71h0l-2.72-.3c-.69-.08-1.42-.08-1.71.4s.25.92.69,1.26a7,7,0,0,0,5.42.93,4.85,4.85,0,0,1,4.42.92,8.14,8.14,0,0,0,5,1.27c.38-.71-1-1-.4-1.79,1.62.63,3.44.31,5.24.67s2.81,1.77,5,1.45c-1.08-1.21-3.31-1.5-3.54-3.16C1061,80.07,1062.57,81.44,1064.67,81.47Zm2.67-9.52c-.61-.76-1-1.32-1.5-1.84a1.4,1.4,0,0,0-1.56-.57c-.71.27-.32.78-.13,1.21C1064.58,71.69,1065.48,72.07,1067.34,72Zm12.43-3.85c-.83-2-4.29-2.22-5.18-4.16a.49.49,0,0,0-.35-.12,30.43,30.43,0,0,0-7.18.9c-.18,0-.4.32-.35.44s.33.58.61.65c.61.14,1.29.1,1.92.2C1072.77,66.56,1076.61,66.23,1079.77,68.1Zm4.44-5.34-.09-.06c3.56-.13,3.64-.23,2.18-2.5a2.89,2.89,0,0,0-3.88-1.13c-3.19,1.27-3.3,1.65-2.1,3.24S1082.84,63,1084.21,62.76Zm2.57,1.7-2.53-1.67a10.78,10.78,0,0,1-.68,2.13c-.35.65.11.84.79,1,1,.28,2.12.49,2.87-.24C1087.68,65.28,1087.34,64.82,1086.78,64.46Zm9.37,2.32c-.18-1.06-1.56-1.17-2.75-1.26a14.09,14.09,0,0,0-1.57,0c-.79.6-2,1.05-1.67,2s1.63.83,2.65.89a6.21,6.21,0,0,0,1.14-.12C1095.17,68.18,1096.32,67.79,1096.15,66.78Zm2.5,2.72a.75.75,0,0,0,.53.36,2.47,2.47,0,0,0,2.53-1.33c.12-.18-.08-.48-.18-.74a2.25,2.25,0,0,0-.91.32C1100.07,68.66,1098.39,68.4,1098.65,69.5Zm8.46-9.55a2.65,2.65,0,0,0-2.49-.47c-.57.13-.79.43-.65.85.24.7,1.09.76,1.85.9l1.66.27A1.09,1.09,0,0,0,1107.11,60Zm20.66,4.81c-.14-1-.16-2.05-1.92-2.58-1.44-.44-2.56-.72-3.77.24-.49.39-.74,1.28-2.11,1l-1.57-1.74c-.9.91.23,2.16-.76,3.05,1.34.21,2.13,1,3.13,1.58-1.28.91-.7,2.62-2.5,3.3,1.63.79,4.75,1,5.84.39.75-.45,1.18-1.22-.11-1.52-1.74-.4-2.37-1.45-3.37-2.31,1.89.19,1.91-1.19,2.76-1.88a7.56,7.56,0,0,1,1.14.52c.28.2.38.55.68.7C1126.32,66,1127.89,65.6,1127.77,64.76Zm-33.27,7.52c-.76.54.06,1,.5,1.47.9.87,1,1.91,1.5,3.18a6.23,6.23,0,0,0,2.69-3.12c.36-.88-.41-1.43-1.44-1.79A3.45,3.45,0,0,0,1094.5,72.28Zm29-55.24c-.31-.4-.48-1.09-1.28-1-1.23.18-2,1-3.46,1.07a1,1,0,0,0-1,1.35c.35.74-1,1.07-.56,1.83a9,9,0,0,0,6-1.49A1.09,1.09,0,0,0,1123.51,17Zm6.26,46.81c1.84.57,3.22.42,3.74-1.12C1130.84,62.29,1130.84,62.29,1129.77,63.85ZM1133,38.13c-.5,0-.65.28-.55.6a.76.76,0,0,0,.84.5c.44,0,.64-.29.62-.4A.82.82,0,0,0,1133,38.13Zm4.14,25.43c-.2-.17-.39-.35-.58-.53A2,2,0,0,0,1137.18,63.56Zm-22.39-38.27a9.17,9.17,0,0,0-4.06.33c-.91.39-.29,1.53.59,1.95,1.81.87,2.61,2.31,4.11,3.32.65-1.28-.81-2.73.44-4C1116.43,26.29,1115.65,25.37,1114.79,25.29Zm35.11,37.44c.53,1.15-.07,2.58,1.9,3.64C1152.12,64.69,1151.4,63.6,1149.9,62.73Zm-15.25-4.46c-.82,1.95.46,3.37,1.95,4.76C1135.6,61.63,1137.36,59.56,1134.65,58.27ZM1130.52,57c1.18-.24,1.7-.77,1.55-1.65a7.13,7.13,0,0,0-1-2.75,2.81,2.81,0,0,0-3.22-1.19c-2.17.79-4.7-.41-6.8.75-1,.53-4.9-1-5.06-1.76-.26-1.27,1.52-1.31,2.51-1.77,1.44-.66,2.17-1.45,1.38-3.49-1.14,1.72-2.68,2.11-4.59,2-.67,0-1.38.24-1.37.78,0,1.26-.83,2-2.11,2.77s-.61,2.15.88,2a17.67,17.67,0,0,1,8.52,1.58,4.62,4.62,0,0,0,2.67-.21,3.49,3.49,0,0,1,3.69,1.12c.28.33.53.67.78,1A1.93,1.93,0,0,0,1130.52,57ZM1077.7,50.9c1.51,1.18,3.9,1.61,4.63,3.27C1082.21,51.43,1080.92,50.57,1077.7,50.9Zm23-20.67c-.3.52-1.14.95-.71,1.7a1.38,1.38,0,0,0,1.92.4c.73-.33,1.84-.59,1.37-1.42S1101.83,30.15,1100.69,30.23Zm27.18,40.13c-.29,0-.42.17-.3.38s.27.64.51.7c.65.15.33-.28.33-.45A.61.61,0,0,0,1127.87,70.36Zm-18,2.92c-.18.3-.3.41-.26.45l2.42,2.54c.62-.69,2.7-.35,2.22-2C1112.56,75,1111.28,74,1109.91,73.28ZM951,102.81c-.53.22-1.24.52-.7,1a2,2,0,0,0,1.79.11c.5-.15.85-.4.55-.89A1.52,1.52,0,0,0,951,102.81Zm-11.86-2.6a.9.9,0,0,0-1.25.3c-.39.84-1.2,1.64-.57,3.06,1.49-.89,1.11-2.06,2.16-2.66C939.7,100.75,939.45,100.37,939.09,100.21Zm82.93-4c-.34.16-.29.49,0,.73a1.56,1.56,0,0,0,1.4.28c.43-.1.52-.36.28-.68A1.52,1.52,0,0,0,1022,96.2ZM859,92.81c-.34.71.81,1.41,1.75,1.64a5.54,5.54,0,0,0,4.9-.64c-1.49-.78-2.92-.53-4-1.08C860.8,92.34,859.46,91.82,859,92.81Zm-44.89,1.61c-3.93-.5-7.66.67-12,.77-.27.06-.13.45-.06.83s.34,1.08,1.11,1a97.71,97.71,0,0,1,11.36-.68c.62,0,1.28-.35,1.23-.93S814.9,94.52,814.09,94.42ZM994.64,96c.21-.53-.59-1.14-1-.83-1.13.88-3.34.3-4,1.42-1.07,1.79-3.22,2.52-5.34,3.4-1.1.45-2.67.94-1.79,2.56,2.87-1.71,6.52-2.22,8.52-4.38.21-.23,1-.18,1.46-.31A3.07,3.07,0,0,0,994.64,96Zm14.85,7.07c-.39.13-.39.39-.19.66a.85.85,0,0,0,1,.1.4.4,0,0,0,.12-.48A.77.77,0,0,0,1009.49,103Zm-8.91-7c-.27,0-.83.24-.83.39,0,.84,1,.94,1.79,1.19a1.67,1.67,0,0,0,.44,0C1002.07,96.81,1001.94,96.12,1000.58,96Zm-35.67-.25a2.93,2.93,0,0,0,1.26,2.41C966.49,97.22,966.06,96.63,964.91,95.77Zm28.81,6.68c-.36.12-.47.46-.19.68a1.69,1.69,0,0,0,.94.33c.43,0,.56-.28.47-.59A1.16,1.16,0,0,0,993.72,102.45ZM763.49,96.07c1.77.06,2.65.9,3.8.17.14-.09.21-.43.12-.49C766.42,95.15,765.38,95.24,763.49,96.07Zm200.19,5.64a3.7,3.7,0,0,0,3.51.85A3.37,3.37,0,0,0,963.68,101.71ZM753.09,96.17c-.1,0-.06.35.06.46a1.19,1.19,0,0,0,1.3.18c.09,0,0-.31,0-.47A1.22,1.22,0,0,0,753.09,96.17ZM280.94,103.9a.34.34,0,0,0,0,.51c.16.17.33.4.52.2,0,0,0-.27,0-.41C281.31,104,281.14,103.78,280.94,103.9Zm-.72-2.67c-.11,0-.15.16-.1.33s.1.61.32.69a.71.71,0,0,0,.06-.34C280.43,101.67,280.48,101.28,280.22,101.23Zm5.41,1.21c.66,0,1,.71,1.44,0a.87.87,0,0,0,0-.42C286.68,101.56,286.29,101.67,285.63,102.44ZM91.84,105.83a.63.63,0,0,0,0,.65c.53.69.86-.07,1.24-.42a1,1,0,0,0,0-.28C92.67,105.19,92.25,105.31,91.84,105.83Zm189.87-3.06a.73.73,0,0,0,.05.4c.14.24.33.35.5.14a1.82,1.82,0,0,0,0-.41C282.06,102.7,281.89,102.53,281.71,102.77ZM749.39,94.3c-.29,0-.43.18-.32.38s.17.7.73.81c0,0,.29-.29.23-.39C749.88,94.82,750.06,94.37,749.39,94.3Zm1.47,3.13c-.48.12-.44.4-.08.58a1.51,1.51,0,0,0,1.35.26c.11,0,0-.31.07-.47A1.61,1.61,0,0,0,750.86,97.43ZM377.39,99.05a.56.56,0,0,0,0,.58c.12.18.26.24.37.05a.88.88,0,0,0,0-.43C377.67,99,377.52,98.93,377.39,99.05ZM356,101.81a.72.72,0,0,0-.21.9c.17.3.46.21.67,0a.66.66,0,0,0,.15-.79C356.4,101.64,356.19,101.56,356,101.81Zm722.3-11.88c-.08.41.28.79.87.76,1.4-.09,1.76-1.06,2.26-1.74s-.5-1-1.3-1.3A2.66,2.66,0,0,0,1078.27,89.93Zm36.61-8.63c.42.5,1.34.15,2.43-.36A9.35,9.35,0,0,0,1116,81C1115.56,81.09,1114.54,80.89,1114.88,81.3ZM78.05,88.3c-.56.18-1,.94-1.58.53-.83-.55-.91.5-1.13,1.19s.34,1.11.57,1.6.54.3.76-.2.44-.33.71-.09a9.19,9.19,0,0,1,2.06,2.22c-.08-1,.51-1.09.67-1.93C78.62,91.71,78.74,89.65,78.05,88.3ZM1109.53,77.14c-.15.44,0,1,.84,1.07s.83-.29.67-.72c-.23-.67.09-1.09,1-1.22h0C1111.11,76.42,1109.84,76.19,1109.53,77.14Zm-3.53.77a2.92,2.92,0,0,0-2.73-.65c-.58.09-.66.47-.46.92a2,2,0,0,0,2.46.73C1105.85,78.72,1106.48,78.43,1106,77.91Zm1.19-3.42c.1-.08,0-.3,0-.46-.23,0-.52-.16-.66-.1-.36.16-.41.43,0,.61A.91.91,0,0,0,1107.19,74.49Zm3.13,7.44a.86.86,0,0,1-.94.71c-.41,0-.61-.35-.49-.62s.67-.48,1.23-.29c-1.76-.35-3.25-1.59-5.46-1.17,4.69,3.4,4.69,3.4,6.23,3.52C1111.27,83.31,1110.07,82.69,1110.32,81.93ZM1027,102.73a2.17,2.17,0,0,0-.68-.1c0,.16-.15.36-.06.46a.83.83,0,0,0,.59.23C1027.32,103.22,1027.36,103,1027,102.73Zm30.66-16.22c.11-.37-.18-.7-.81-.64a4.8,4.8,0,0,0-.91.21,3.78,3.78,0,0,0,.64.56C1057,86.89,1057.55,87,1057.7,86.51Zm-1.79-.49h-.07l0,.09Zm-1.76,1.72-.09-.1s0,0,0,.06ZM1120.92,76c-.56.07-.8.55-.37.84.91.6,1.35,1.75,2.87,1.68.82,0,.69-.62.44-1.15A2.91,2.91,0,0,0,1120.92,76Zm-65,10,0,.1.11,0Zm-3.67,4.26c-.09.09,0,.31.09.47a.58.58,0,0,0,.85,0,.33.33,0,0,0,0-.43A.75.75,0,0,0,1052.24,90.28Zm8.28,3.08c.5-.2.63-.58.29-.94a1.27,1.27,0,0,0-1.3-.41c-.48.18-.42.61-.25,1A1.1,1.1,0,0,0,1060.52,93.36Zm-1,2.29c-.69.31-1.22.77-.71,1.34a2.24,2.24,0,0,0,2.33.58.75.75,0,0,0,.52-1.17A1.7,1.7,0,0,0,1059.52,95.65ZM1098.44,89c-.38.14-.44.41-.37.6a.68.68,0,0,0,.94.39c.37-.13.51-.41.35-.69A.71.71,0,0,0,1098.44,89Zm-56.91,7.11c0,.15-.2.36-.11.44a2.38,2.38,0,0,0,.85.54c.31.11.51-.06.35-.29A1.33,1.33,0,0,0,1041.53,96.14Zm-9.94,7.31c-.56.23-.93.58-.73,1.13a1.46,1.46,0,0,0,1.62.34c.67-.25.72-.7.37-1.16A1,1,0,0,0,1031.59,103.45Zm56.94-7a1.23,1.23,0,0,0-1.23-.06c-.2.53.47,1,.79,1.41a.59.59,0,0,0,.91.16C1089.5,97.4,1089.1,96.88,1088.53,96.44Zm-17.62.31c-1.13-.57-2.72-.77-3.59-.06-1.09.89.61,1.39,1.27,2a15.08,15.08,0,0,0,1.27,1,7.24,7.24,0,0,0,1-.73C1071.55,98.23,1072.26,97.43,1070.91,96.75Zm-9.07-6.19a4.5,4.5,0,0,0-.75,0c.06.17.05.38.2.48a1,1,0,0,0,.67.15C1062.41,90.94,1062.29,90.7,1061.84,90.56Zm5.5-.86a2.09,2.09,0,0,0-2.89.14c-.88.87-1.18,1.75.11,3,0-1.4.93-1.85,2.5-2C1068.13,90.73,1068.18,90.22,1067.34,89.7Z"/></g></g></svg>