<svg xmlns="http://www.w3.org/2000/svg" viewBox="0 0 49.61 40.85"><defs><style>.cls-1{fill:#fff;fill-rule:evenodd;}</style></defs><g id="Layer_2" data-name="Layer 2"><g id="Layer_1-2" data-name="Layer 1"><path class="cls-1" d="M45.23,24.8H4.38A4.38,4.38,0,0,1,0,20.43a4.68,4.68,0,0,1,4.38-3.94H45.23a4.37,4.37,0,0,1,4.38,3.94A4.16,4.16,0,0,1,45.23,24.8Zm0-16H4.38A4.38,4.38,0,1,1,4.38,0H45.23a4.17,4.17,0,0,1,4.38,4.38A4.16,4.16,0,0,1,45.23,8.75ZM4.38,33H45.23c2.78,0,4.38,1.59,4.38,3.49a4.16,4.16,0,0,1-4.38,4.37H4.38A4.38,4.38,0,0,1,0,36.48C0,34.58,2,33,4.38,33Z"/></g></g></svg>